<?xml version="1.0" encoding="utf-8"?>
<!-- Generator: Adobe Illustrator 18.1.1, SVG Export Plug-In . SVG Version: 6.00 Build 0)  -->
<svg version="1.1" id="Layer_1" xmlns="http://www.w3.org/2000/svg" xmlns:xlink="http://www.w3.org/1999/xlink" x="0px" y="0px"
	 viewBox="0 0 20 20" enable-background="new 0 0 20 20" xml:space="preserve">
<g>
	<path fill="#010101" d="M17.3,11.6c-0.1,0.1-0.1,0.1-0.2,0.1H2.9c-0.1,0-0.1,0-0.2-0.1s-0.1-0.1-0.1-0.2V4.1c0-0.1,0-0.1,0.1-0.2
		c0.1-0.1,0.1-0.1,0.2-0.1h14.2c0.1,0,0.1,0,0.2,0.1c0.1,0.1,0.1,0.1,0.1,0.2v7.4C17.4,11.5,17.3,11.6,17.3,11.6z M18.1,3.1
		c-0.3-0.3-0.6-0.4-1-0.4H2.9c-0.4,0-0.7,0.1-1,0.4s-0.4,0.6-0.4,1v9.6c0,0.4,0.1,0.7,0.4,1s0.6,0.4,1,0.4h4.8c0,0.2,0,0.5-0.1,0.7
		c-0.1,0.2-0.2,0.4-0.3,0.6c-0.1,0.2-0.1,0.3-0.1,0.4c0,0.2,0.1,0.3,0.2,0.4c0.1,0.1,0.2,0.2,0.4,0.2h4.5c0.2,0,0.3-0.1,0.4-0.2
		s0.2-0.2,0.2-0.4c0-0.1,0-0.2-0.1-0.4c-0.1-0.2-0.2-0.4-0.3-0.6s-0.1-0.5-0.1-0.7h4.8c0.4,0,0.7-0.1,1-0.4s0.4-0.6,0.4-1V4.1
		C18.5,3.7,18.4,3.3,18.1,3.1z"/>
</g>
</svg>
