<?xml version="1.0" encoding="utf-8"?>
<!-- Generated by IcoMoon.io -->
<!DOCTYPE svg PUBLIC "-//W3C//DTD SVG 1.1//EN" "http://www.w3.org/Graphics/SVG/1.1/DTD/svg11.dtd">
<svg version="1.1" xmlns="http://www.w3.org/2000/svg" xmlns:xlink="http://www.w3.org/1999/xlink" width="20" height="20" viewBox="0 0 20 20">
<path d="M14.087 5.913c-0.395-0.395-1.035-0.395-1.43 0l-2.657 2.657-2.657-2.657c-0.395-0.395-1.035-0.395-1.43 0s-0.395 1.036 0 1.43l2.657 2.657-2.657 2.657c-0.395 0.395-0.395 1.035 0 1.43 0.198 0.197 0.457 0.297 0.715 0.297s0.517-0.099 0.715-0.297l2.657-2.657 2.657 2.657c0.197 0.197 0.457 0.297 0.715 0.297s0.518-0.099 0.715-0.297c0.395-0.395 0.395-1.035 0-1.43l-2.657-2.657 2.657-2.657c0.395-0.395 0.395-1.035 0-1.43z" fill="#444444"></path>
<path d="M10 0.833c-5.054 0-9.167 4.112-9.167 9.167s4.112 9.167 9.167 9.167c5.055 0 9.167-4.112 9.167-9.167s-4.112-9.167-9.167-9.167zM10 17.692c-4.241 0-7.692-3.451-7.692-7.692s3.45-7.692 7.692-7.692c4.241 0 7.692 3.45 7.692 7.692s-3.451 7.692-7.692 7.692z" fill="#444444"></path>
</svg>
