<?xml version="1.0" encoding="utf-8"?>
<!-- Generated by IcoMoon.io -->
<!DOCTYPE svg PUBLIC "-//W3C//DTD SVG 1.1//EN" "http://www.w3.org/Graphics/SVG/1.1/DTD/svg11.dtd">
<svg version="1.1" xmlns="http://www.w3.org/2000/svg" xmlns:xlink="http://www.w3.org/1999/xlink" width="20" height="20" viewBox="0 0 20 20">
<path d="M17.53 2.996c0.009 0.001 0.016 0.004 0.024 0.005-0.009-0.001-0.016-0.004-0.024-0.005z" fill="#444444"></path>
<path d="M2.47 17.004c-0.009-0.001-0.016-0.004-0.024-0.005 0.008 0.001 0.016 0.004 0.024 0.005z" fill="#444444"></path>
<path d="M17.854 3.094c0.364 0.161 0.521 0.423 0.58 0.563 0.088 0.211 0.221 0.771-0.426 1.417l-0.199 0.199v9.454l0.199 0.199c0.648 0.646 0.514 1.206 0.426 1.418-0.059 0.14-0.216 0.401-0.58 0.562 0.765-0.294 1.313-1.031 1.313-1.899v-10.015c0-0.867-0.548-1.605-1.313-1.899z" fill="#444444"></path>
<path d="M17.554 16.999c-0.009 0.001-0.016 0.004-0.024 0.005 0.008-0.001 0.016-0.004 0.024-0.005z" fill="#444444"></path>
<path d="M2.446 3.001c0.008-0.001 0.015-0.004 0.024-0.005-0.007 0.001-0.015 0.004-0.024 0.005z" fill="#444444"></path>
<path d="M1.566 16.344c-0.088-0.211-0.221-0.771 0.426-1.418l0.199-0.199v-9.454l-0.199-0.199c-0.647-0.646-0.514-1.206-0.426-1.417 0.059-0.14 0.216-0.401 0.58-0.563-0.765 0.294-1.313 1.031-1.313 1.899v10.016c0 0.867 0.546 1.604 1.313 1.898-0.364-0.161-0.521-0.422-0.58-0.563z" fill="#444444"></path>
<path d="M17.13 2.955c0.136 0 0.271 0.014 0.4 0.041-0.12-0.024-0.249-0.041-0.4-0.041z" fill="#444444"></path>
<path d="M17.554 3.001c0.104 0.022 0.204 0.056 0.301 0.094-0.087-0.039-0.189-0.069-0.301-0.094z" fill="#444444"></path>
<path d="M7.879 9.040l-4.726-4.726h-0.281c-0.375 0-0.679 0.304-0.679 0.679v0.281l4.728 4.726 0.96-0.96z" fill="#444444"></path>
<path d="M2.146 3.094c0.098-0.037 0.196-0.071 0.301-0.094-0.114 0.024-0.214 0.055-0.301 0.094z" fill="#444444"></path>
<path d="M2.47 2.996c0.13-0.026 0.264-0.041 0.4-0.041-0.151 0-0.28 0.017-0.4 0.041z" fill="#444444"></path>
<path d="M17.13 4.314h-0.281l-4.726 4.726 0.959 0.96 4.726-4.726v-0.281c0-0.375-0.304-0.679-0.679-0.679z" fill="#444444"></path>
<path d="M10.48 10.681c-0.255 0.254-0.706 0.254-0.96 0l-0.681-0.681-0.96 0.96 0.681 0.681c0.384 0.384 0.895 0.595 1.44 0.595s1.056-0.211 1.44-0.595l0.681-0.681-0.96-0.96-0.681 0.681z" fill="#444444"></path>
<path d="M1.566 3.656c-0.088 0.211-0.221 0.771 0.426 1.417l0.199 0.199v-0.281c0-0.375 0.304-0.679 0.679-0.679h14.259c0.375 0 0.679 0.304 0.679 0.679v0.281l0.199-0.199c0.648-0.646 0.514-1.206 0.426-1.417-0.059-0.14-0.216-0.401-0.58-0.563-0.098-0.037-0.196-0.071-0.301-0.094-0.008-0.001-0.015-0.004-0.024-0.005-0.129-0.026-0.264-0.041-0.4-0.041h-14.26c-0.136 0-0.271 0.014-0.4 0.041-0.009 0.001-0.016 0.004-0.024 0.005-0.104 0.022-0.204 0.056-0.301 0.094-0.364 0.161-0.521 0.422-0.58 0.563z" fill="#444444"></path>
<path d="M17.854 16.906c-0.097 0.038-0.196 0.071-0.301 0.094 0.114-0.024 0.214-0.055 0.301-0.094z" fill="#444444"></path>
<path d="M12.121 10.96l4.726 4.726h0.281c0.375 0 0.679-0.304 0.679-0.679v-0.281l-4.726-4.726-0.96 0.96z" fill="#444444"></path>
<path d="M2.87 17.045c-0.136 0-0.271-0.014-0.4-0.041 0.12 0.024 0.249 0.041 0.4 0.041z" fill="#444444"></path>
<path d="M17.53 17.004c-0.129 0.026-0.264 0.041-0.4 0.041 0.151 0 0.28-0.017 0.4-0.041z" fill="#444444"></path>
<path d="M2.446 16.999c-0.104-0.023-0.204-0.056-0.301-0.094 0.086 0.039 0.187 0.069 0.301 0.094z" fill="#444444"></path>
<path d="M6.919 10l-4.726 4.726v0.281c0 0.375 0.304 0.679 0.679 0.679h0.281l4.726-4.726-0.96-0.96z" fill="#444444"></path>
<path d="M18.434 16.344c0.088-0.211 0.221-0.771-0.426-1.418l-0.199-0.199v0.281c0 0.375-0.304 0.679-0.679 0.679h-14.259c-0.375 0-0.679-0.304-0.679-0.679v-0.281l-0.199 0.199c-0.648 0.646-0.514 1.206-0.426 1.418 0.059 0.14 0.216 0.401 0.58 0.563 0.098 0.037 0.196 0.071 0.301 0.094 0.009 0.001 0.016 0.004 0.024 0.005 0.129 0.026 0.264 0.041 0.4 0.041h14.259c0.136 0 0.271-0.014 0.4-0.041 0.009-0.001 0.016-0.004 0.024-0.005 0.104-0.023 0.204-0.056 0.301-0.094 0.366-0.161 0.524-0.422 0.581-0.563z" fill="#444444"></path>
<path d="M13.082 10l-0.96 0.96-0.96-0.96 0.96-0.96 0.96 0.96z" fill="#444444"></path>
<path d="M6.917 10l0.96-0.96 0.96 0.96-0.96 0.96-0.96-0.96z" fill="#444444"></path>
</svg>
