<?xml version="1.0" encoding="utf-8"?>
<!-- Generator: Adobe Illustrator 18.1.1, SVG Export Plug-In . SVG Version: 6.00 Build 0)  -->
<svg version="1.1" id="Layer_1" xmlns="http://www.w3.org/2000/svg" xmlns:xlink="http://www.w3.org/1999/xlink" x="0px" y="0px"
	 viewBox="0 0 20 20" enable-background="new 0 0 20 20" xml:space="preserve">
<path fill="#444444" d="M8.3,13.2l1.3,1.3L14,10L9.5,5.5L8.3,6.8l2.3,2.3H1.9v1.8h8.7L8.3,13.2L8.3,13.2z M16.3,1.9H3.7
	c-1,0-1.8,0.8-1.8,1.8v3.6h1.8V3.7h12.6v12.6H3.7v-3.6H1.9v3.6c0,1,0.8,1.8,1.8,1.8h12.6c1,0,1.8-0.8,1.8-1.8V3.7
	C18.1,2.7,17.3,1.9,16.3,1.9L16.3,1.9z"/>
</svg>
