<?xml version="1.0" encoding="utf-8"?>
<!-- Generated by IcoMoon.io -->
<!DOCTYPE svg PUBLIC "-//W3C//DTD SVG 1.1//EN" "http://www.w3.org/Graphics/SVG/1.1/DTD/svg11.dtd">
<svg version="1.1" xmlns="http://www.w3.org/2000/svg" xmlns:xlink="http://www.w3.org/1999/xlink" width="20" height="20" viewBox="0 0 20 20">
<path d="M14.245 8.62c0.411 0 0.744-0.334 0.744-0.744s-0.332-0.744-0.744-0.744h-0.913l0.202-1.262c0.065-0.406-0.211-0.787-0.616-0.852-0.41-0.068-0.785 0.212-0.852 0.616l-0.24 1.497h-2.741l0.202-1.262c0.065-0.406-0.211-0.787-0.616-0.852-0.403-0.065-0.785 0.212-0.852 0.616l-0.24 1.499h-1.83c-0.41 0-0.744 0.334-0.744 0.744s0.334 0.744 0.744 0.744h1.591l-0.442 2.759h-1.15c-0.41 0-0.744 0.332-0.744 0.744s0.334 0.744 0.744 0.744h0.913l-0.202 1.262c-0.065 0.406 0.211 0.785 0.616 0.852 0.040 0.007 0.079 0.010 0.118 0.010 0.359 0 0.675-0.26 0.733-0.625l0.24-1.497h2.741l-0.202 1.262c-0.065 0.406 0.211 0.785 0.616 0.852 0.040 0.007 0.079 0.010 0.118 0.010 0.359 0 0.675-0.26 0.733-0.625l0.24-1.497h1.83c0.411 0 0.744-0.332 0.744-0.744s-0.332-0.744-0.744-0.744h-1.591l0.442-2.759h1.151zM11.15 11.38h-2.741l0.442-2.759h2.741l-0.442 2.759z" fill="#444444"></path>
<path d="M10 0.766c-5.091 0-9.234 4.143-9.234 9.234s4.143 9.234 9.234 9.234c5.091 0 9.234-4.143 9.234-9.234s-4.143-9.234-9.234-9.234zM10 17.748c-4.273 0-7.748-3.475-7.748-7.748s3.475-7.748 7.748-7.748c4.271 0 7.748 3.475 7.748 7.748s-3.476 7.748-7.748 7.748z" fill="#444444"></path>
</svg>
