<?xml version="1.0" encoding="utf-8"?>
<!-- Generated by IcoMoon.io -->
<!DOCTYPE svg PUBLIC "-//W3C//DTD SVG 1.1//EN" "http://www.w3.org/Graphics/SVG/1.1/DTD/svg11.dtd">
<svg version="1.1" xmlns="http://www.w3.org/2000/svg" xmlns:xlink="http://www.w3.org/1999/xlink" width="20" height="20" viewBox="0 0 20 20">
<path d="M16.707 12.235h-2.624l0.681-4.568h1.943c0.583 0 1.069-0.486 1.069-1.069s-0.486-1.069-1.069-1.069h-1.556l0.389-2.139c0.098-0.583-0.292-1.166-0.875-1.166-0.681 0-1.166 0.292-1.264 0.972l-0.389 2.43h-4.568l0.389-2.139c0.098-0.681-0.389-1.166-0.875-1.36-0.681 0-1.166 0.389-1.264 0.972l-0.486 2.43h-2.916c-0.583 0-1.069 0.486-1.069 1.166s0.486 1.069 1.069 1.069h2.624l-0.681 4.568h-1.943c-0.583 0-1.069 0.486-1.069 1.069s0.486 1.069 1.069 1.069h1.556l-0.389 2.139c-0.098 0.583 0.292 1.166 0.875 1.166 0.098 0 0.098 0 0.098 0 0.486 0 0.972-0.389 1.069-0.875l0.389-2.43h4.568l-0.389 2.139c-0.098 0.583 0.292 1.166 0.875 1.166 0.098 0 0.098 0 0.098 0 0.486 0 0.972-0.389 1.069-0.875l0.389-2.43h3.014c0.583 0 1.069-0.486 1.069-1.069 0.194-0.681-0.292-1.166-0.875-1.166zM7.376 12.235l0.681-4.472h4.568l-0.681 4.472c0 0-4.568 0-4.568 0z" fill="#444444"></path>
</svg>
