<?xml version="1.0" encoding="utf-8"?>
<!-- Generated by IcoMoon.io -->
<!DOCTYPE svg PUBLIC "-//W3C//DTD SVG 1.1//EN" "http://www.w3.org/Graphics/SVG/1.1/DTD/svg11.dtd">
<svg version="1.1" xmlns="http://www.w3.org/2000/svg" xmlns:xlink="http://www.w3.org/1999/xlink" width="20" height="20" viewBox="0 0 20 20">
<path d="M15 6.666c0-2.756-2.244-5-5-5s-5 2.244-5 5v1.666h-1.111v3.889c0 3.377 2.734 6.111 6.111 6.111s6.111-2.734 6.111-6.111v-3.889h-1.111v-1.666zM6.111 6.666c0-2.134 1.756-3.889 3.889-3.889s3.889 1.756 3.889 3.889v1.666h-1.111v-1.666c0-1.534-1.244-2.777-2.777-2.777s-2.779 1.244-2.779 2.777v1.666h-1.111v-1.666zM11.666 6.666v1.666h-3.334v-1.666c0-0.911 0.756-1.666 1.666-1.666s1.666 0.756 1.666 1.666zM15 12.223c0 2.756-2.244 5-5 5s-5-2.244-5-5v-2.777h10v2.777z" fill="#444444"></path>
<path d="M9.444 14.356c0 0.023 0 0.066 0 0.089v0.555c0 0.311 0.244 0.556 0.556 0.556s0.556-0.244 0.556-0.556v-0.556c0-0.023 0-0.066 0-0.089 0.644-0.221 1.111-0.844 1.111-1.578 0-0.911-0.756-1.666-1.666-1.666s-1.666 0.756-1.666 1.666c0 0.734 0.466 1.356 1.111 1.579zM10 12.223c0.311 0 0.556 0.244 0.556 0.556s-0.245 0.555-0.556 0.555-0.556-0.244-0.556-0.556c0-0.311 0.245-0.555 0.556-0.555z" fill="#444444"></path>
</svg>
