<svg aria-label="I like this" class="icon" width="24" height="24" viewBox="0 0 24 24" xmlns="http://www.w3.org/2000/svg">
  <path d="M21.639,6.86c-0.498-1.153-1.497-2.124-2.882-2.725c-1.223-0.532-2.541-0.596-3.74-0.27
    C13.82,4.189,12.741,5.073,12,6.097c-0.742-1.024-1.82-1.908-3.018-2.232c-1.198-0.326-2.516-0.261-3.74,0.27
    C3.858,4.736,2.861,5.706,2.36,6.86c-0.498,1.152-0.501,2.493,0.13,3.823c1.341,2.851,9.466,9.537,9.51,9.651
    c0.042-0.114,8.168-6.8,9.512-9.651C22.14,9.352,22.139,8.012,21.639,6.86z"/>
</svg>