<?xml version="1.0" encoding="utf-8"?>
<!-- Generated by IcoMoon.io -->
<!DOCTYPE svg PUBLIC "-//W3C//DTD SVG 1.1//EN" "http://www.w3.org/Graphics/SVG/1.1/DTD/svg11.dtd">
<svg version="1.1" xmlns="http://www.w3.org/2000/svg" xmlns:xlink="http://www.w3.org/1999/xlink" width="20" height="20" viewBox="0 0 20 20">
<path d="M16.563 18.75h-13.125c-1.206 0-2.188-0.981-2.188-2.188v-13.125c0-1.206 0.981-2.188 2.188-2.188h13.125c1.206 0 2.188 0.981 2.188 2.188v13.125c0 1.206-0.981 2.188-2.188 2.188zM3.438 2.709c-0.401 0-0.729 0.328-0.729 0.729v13.125c0 0.402 0.328 0.729 0.729 0.729h13.125c0.402 0 0.729-0.326 0.729-0.729v-13.125c0-0.401-0.326-0.729-0.729-0.729h-13.125z" fill="white"></path>
<path d="M5.99 11.51l6.249-6.25 2.501 2.501-6.25 6.249z" fill="white"></path>
<path d="M7.761 14.74h-2.501v-2.501z" fill="white"></path>
</svg>
