<?xml version="1.0" encoding="utf-8"?>
<!-- Generator: Adobe Illustrator 17.0.0, SVG Export Plug-In . SVG Version: 6.00 Build 0)  -->
<!DOCTYPE svg PUBLIC "-//W3C//DTD SVG 1.1//EN" "http://www.w3.org/Graphics/SVG/1.1/DTD/svg11.dtd">
<svg version="1.1" id="Layer_1" xmlns="http://www.w3.org/2000/svg" xmlns:xlink="http://www.w3.org/1999/xlink" x="0px" y="0px"
	 width="112px" height="55.795px" viewBox="0 0 112 55.795" enable-background="new 0 0 112 55.795" xml:space="preserve">
<path fill="#FFFFFF" d="M104.198,44.138c0,2.142-1.748,3.885-3.901,3.885h-3.901V7.765h3.901c2.153,0,3.901,1.743,3.901,3.883
	V44.138z M100.297,0H89.305c-0.392,0-0.709,0.313-0.709,0.705v54.38c0,0.394,0.317,0.71,0.709,0.71h10.992
	C106.75,55.794,112,50.56,112,44.138v-32.49C112,5.225,106.75,0,100.297,0z M74.668,44.138c0,2.142-1.75,3.885-3.901,3.885
	s-3.904-1.743-3.904-3.885v-32.49c0-2.139,1.753-3.883,3.904-3.883s3.901,1.743,3.901,3.883V44.138z M70.767,0
	c-6.453,0-11.702,5.225-11.702,11.648v32.49c0,6.421,5.248,11.656,11.702,11.656c6.453,0,11.701-5.234,11.701-11.656v-32.49
	C82.467,5.225,77.22,0,70.767,0z M11.701,0C5.25,0,0,5.225,0,11.648v32.49c0,6.421,5.25,11.656,11.701,11.656
	c2.745,0,5.262-0.955,7.26-2.532l0.897,2.532h2.835c0.392,0,0.709-0.316,0.709-0.71V23.305c0-0.391-0.317-0.705-0.709-0.705H12.058
	c-0.394,0-0.712,0.313-0.712,0.705v6.354c0,0.394,0.318,0.707,0.712,0.707h3.544v13.773c0,2.142-1.75,3.885-3.901,3.885
	S7.8,46.281,7.8,44.139v-32.49c0-2.139,1.75-3.883,3.901-3.883s3.901,1.743,3.901,3.883v2.475c0,0.387,0.318,0.705,0.712,0.705
	h6.379c0.392,0,0.709-0.318,0.709-0.705v-2.475C23.402,5.225,18.155,0,11.701,0z M45.135,44.138c0,2.142-1.752,3.885-3.901,3.885
	c-2.151,0-3.901-1.743-3.901-3.885v-32.49c0-2.139,1.75-3.883,3.901-3.883c2.149,0,3.901,1.743,3.901,3.883V44.138z M41.234,0
	C34.781,0,29.53,5.225,29.53,11.648v32.49c0,6.421,5.25,11.656,11.703,11.656s11.701-5.234,11.701-11.656v-32.49
	C52.935,5.225,47.687,0,41.234,0z"/>
</svg>
