<?xml version="1.0" encoding="utf-8"?>
<!-- Generator: Adobe Illustrator 17.1.0, SVG Export Plug-In . SVG Version: 6.00 Build 0)  -->
<!DOCTYPE svg PUBLIC "-//W3C//DTD SVG 1.1//EN" "http://www.w3.org/Graphics/SVG/1.1/DTD/svg11.dtd">
<svg version="1.1" id="Layer_1" xmlns="http://www.w3.org/2000/svg" xmlns:xlink="http://www.w3.org/1999/xlink" x="0px" y="0px"
	 viewBox="0 0 20 20" enable-background="new 0 0 20 20" xml:space="preserve">
<path fill="#444444" d="M16.6,18.8H3.4c-1.2,0-2.2-1-2.2-2.2V3.4c0-1.2,1-2.2,2.2-2.2h13.1c1.2,0,2.2,1,2.2,2.2v13.1
	C18.8,17.8,17.8,18.8,16.6,18.8z M3.4,2.7C3,2.7,2.7,3,2.7,3.4v13.1c0,0.4,0.3,0.7,0.7,0.7h13.1c0.4,0,0.7-0.3,0.7-0.7V3.4
	c0-0.4-0.3-0.7-0.7-0.7C16.6,2.7,3.4,2.7,3.4,2.7z"/>
<g id="XMLID_640_">
	<path fill="#444444" d="M7.8,10.6c-0.1,0-0.2,0-0.3-0.1c-0.1-0.1-0.2-0.3-0.2-0.4V6.3c0-0.2,0.1-0.3,0.2-0.4
		c0.1-0.1,0.3-0.1,0.5-0.1l5.7,1.9C13.8,7.7,14,7.9,14,8.2c0,0.2-0.1,0.4-0.4,0.5l-5.7,1.9C7.9,10.6,7.8,10.6,7.8,10.6z M8.3,7v2.3
		l3.5-1.2L8.3,7z"/>
	<path fill="#444444" d="M7.8,14.3c-0.3,0-0.5-0.2-0.5-0.5V6.3c0-0.3,0.2-0.5,0.5-0.5c0.3,0,0.5,0.2,0.5,0.5v7.5
		C8.3,14.1,8.1,14.3,7.8,14.3z"/>
</g>
</svg>
