<?xml version="1.0" encoding="utf-8"?>
<!-- Generated by IcoMoon.io -->
<!DOCTYPE svg PUBLIC "-//W3C//DTD SVG 1.1//EN" "http://www.w3.org/Graphics/SVG/1.1/DTD/svg11.dtd">
<svg version="1.1" xmlns="http://www.w3.org/2000/svg" xmlns:xlink="http://www.w3.org/1999/xlink" width="20" height="20" viewBox="0 0 20 20">
<path d="M14.352 8.769c0-3.111-1.564-4.504-2.827-5.122-0.007-0.864-0.709-1.563-1.573-1.563-0.87 0-1.575 0.704-1.575 1.575 0 0.013 0.001 0.025 0.002 0.038-1.244 0.641-2.729 2.040-2.729 5.072 0 0 0.354 4.607-2.384 4.541v1.367h13.473v-1.367c-2.74 0.067-2.386-4.541-2.386-4.541z" fill="#444444"></path>
<path d="M7.443 15.478c0.091 1.362 1.222 2.439 2.607 2.439s2.516-1.077 2.607-2.44h-5.213z" fill="#444444"></path>
</svg>
