<?xml version="1.0" encoding="utf-8"?>
<!-- Generator: Adobe Illustrator 18.1.1, SVG Export Plug-In . SVG Version: 6.00 Build 0)  -->
<svg version="1.1" id="Layer_1" xmlns="http://www.w3.org/2000/svg" xmlns:xlink="http://www.w3.org/1999/xlink" x="0px" y="0px"
	 viewBox="0 0 20 20" enable-background="new 0 0 20 20" xml:space="preserve">
<g>
	<path d="M16.9,3.4H3.1c-1.1,0-2.1,0.9-2.1,2v9.3c0,1.1,0.9,2,2.1,2h13.7c1.1,0,2.1-0.9,2.1-2V5.4C18.9,4.3,18,3.4,16.9,3.4z
		 M17.5,14.6c0,0.4-0.3,0.7-0.7,0.7H3.1c-0.4,0-0.7-0.3-0.7-0.7V5.4c0-0.4,0.3-0.7,0.7-0.7h13.7c0.4,0,0.7,0.3,0.7,0.7V14.6z"/>
	<path d="M10,6c-2.3,0-4.1,1.8-4.1,4s1.8,4,4.1,4s4.1-1.8,4.1-4S12.3,6,10,6z M10,12.6c-1.5,0-2.7-1.2-2.7-2.6
		c0-1.5,1.2-2.6,2.7-2.6s2.7,1.2,2.7,2.6C12.7,11.5,11.5,12.6,10,12.6z"/>
	<ellipse cx="15.3" cy="6.8" rx="1.2" ry="1.2"/>
</g>
</svg>
