<?xml version="1.0" encoding="utf-8"?>
<!-- Generated by IcoMoon.io -->
<!DOCTYPE svg PUBLIC "-//W3C//DTD SVG 1.1//EN" "http://www.w3.org/Graphics/SVG/1.1/DTD/svg11.dtd">
<svg version="1.1" xmlns="http://www.w3.org/2000/svg" xmlns:xlink="http://www.w3.org/1999/xlink" width="20" height="20" viewBox="0 0 20 20">
<path d="M14.386 4.912c-1.228 0-2.457 0.438-3.421 1.228 0 0-0.088 0.088-0.088 0.175s0 0.088 0.088 0.175l0.878 1.053c0 0 0.088 0.088 0.175 0.088s0.088 0 0.175-0.088c0.526-0.526 1.316-0.878 2.193-0.878 1.93 0 3.421 1.491 3.421 3.333s-1.579 3.333-3.421 3.333c-0.701 0-1.404-0.175-1.93-0.614-0.614-0.351-1.053-0.964-1.316-1.667-0.088-0.175-0.088-0.351-0.175-0.614 0-0.175 0-0.263 0-0.438v-0.175c0 0 0 0 0-0.088 0-0.263 0-0.526-0.088-0.789-0.263-1.404-1.053-2.543-2.28-3.333-0.878-0.526-1.842-0.878-2.895-0.878-2.895 0-5.263 2.28-5.263 5.175 0 2.807 2.368 5.088 5.263 5.088 1.316 0 2.543-0.438 3.509-1.316 0.088-0.088 0.088-0.175 0-0.263l-0.964-0.964c-0.088-0.088-0.175-0.088-0.263 0-0.614 0.526-1.404 0.878-2.28 0.878-1.93 0-3.421-1.491-3.421-3.333s1.579-3.333 3.421-3.333c0.701 0 1.404 0.175 1.93 0.614 0.789 0.526 1.316 1.228 1.491 2.105 0 0.263 0.088 0.438 0.088 0.614 0 0.351 0 0.614 0.088 0.789 0.088 0.351 0.088 0.614 0.263 0.878 0.351 1.053 1.141 1.93 2.017 2.543s1.842 0.878 2.895 0.878c2.895 0 5.263-2.28 5.263-5.088-0.088-2.807-2.457-5.088-5.351-5.088z" fill="#444444"></path>
</svg>
