<?xml version="1.0" encoding="utf-8"?>
<!-- Generated by IcoMoon.io -->
<!DOCTYPE svg PUBLIC "-//W3C//DTD SVG 1.1//EN" "http://www.w3.org/Graphics/SVG/1.1/DTD/svg11.dtd">
<svg version="1.1" xmlns="http://www.w3.org/2000/svg" xmlns:xlink="http://www.w3.org/1999/xlink" width="20" height="20" viewBox="0 0 20 20">
<path fill="#444444" d="M17.7,3.2c-0.1,0-0.2-0.1-0.3-0.1c0,0,0,0,0,0c-0.1,0-0.3,0-0.4,0H3c-0.1,0-0.3,0-0.4,0c0,0,0,0,0,0
	c-0.1,0-0.2,0.1-0.3,0.1C1.5,3.5,1,4.2,1,5.1v9.8c0,0.9,0.5,1.6,1.3,1.9c0.1,0,0.2,0.1,0.3,0.1c0,0,0,0,0,0c0.1,0,0.3,0,0.4,0h14
	c0.1,0,0.3,0,0.4,0c0,0,0,0,0,0c0.1,0,0.2-0.1,0.3-0.1c0.8-0.3,1.3-1,1.3-1.9V5.1C19,4.2,18.5,3.5,17.7,3.2z M16.7,4.4l-4.6,4.6
	L11.1,10l-0.7,0.7c-0.3,0.2-0.7,0.2-0.9,0L8.9,10L7.9,9.1L3.3,4.4H16.7z M2.3,14.6V5.4L7,10L2.3,14.6z M3.3,15.6l4.6-4.6l0.7,0.7
	C9,12,9.5,12.2,10,12.2s1-0.2,1.4-0.6l0.7-0.7l4.6,4.6H3.3z M17.7,14.6L13,10l4.6-4.6V14.6z"/>
</svg>
