<svg version="1.1" xmlns="http://www.w3.org/2000/svg" xmlns:xlink="http://www.w3.org/1999/xlink" width="20" height="20" viewBox="0 0 20 20">
  <path d="M17.9,2.4c-0.1-0.2-0.2-0.3-0.4-0.4C17.5,2,17.4,2,17.3,2h-5.8c-0.4,0-0.7,0.3-0.7,0.7s0.3,0.7,0.7,0.7h4.1
    L10.9,8c-0.3,0.3-0.3,0.7,0,1c0.1,0.1,0.3,0.2,0.5,0.2c0.2,0,0.4-0.1,0.5-0.2l4.6-4.6v4.1c0,0.4,0.3,0.7,0.7,0.7
    c0.4,0,0.7-0.3,0.7-0.7V2.7C18,2.6,18,2.5,17.9,2.4z"/>
  <path d="M9.1,10.9c-0.3-0.3-0.7-0.3-1,0l-4.6,4.6v-4.1c0-0.4-0.3-0.7-0.7-0.7S2,11.1,2,11.5v5.8
    c0,0.1,0,0.2,0.1,0.3c0.1,0.2,0.2,0.3,0.4,0.4C2.5,18,2.6,18,2.7,18h5.8c0.4,0,0.7-0.3,0.7-0.7c0-0.4-0.3-0.7-0.7-0.7H4.5L9.1,12
    C9.3,11.7,9.3,11.2,9.1,10.9z"/>
</svg>
