<?xml version="1.0" encoding="utf-8"?>
<!-- Generator: Adobe Illustrator 18.1.1, SVG Export Plug-In . SVG Version: 6.00 Build 0)  -->
<svg version="1.1" id="Layer_1" xmlns="http://www.w3.org/2000/svg" xmlns:xlink="http://www.w3.org/1999/xlink" x="0px" y="0px"
	 viewBox="0 0 20 20" enable-background="new 0 0 20 20" xml:space="preserve">
<path id="White_2_" d="M17,2.1H3C2.5,2.1,2.1,2.5,2.1,3V17c0,0.5,0.4,0.9,0.9,0.9h7.6v-6.1H8.5V9.4h2.1V7.6c0-2,1.2-3.2,3.1-3.2
	c0.9,0,1.6,0.1,1.8,0.1v2.1l-1.3,0c-1,0-1.2,0.5-1.2,1.2v1.5h2.4l-0.3,2.4H13v6.1h4c0.5,0,0.9-0.4,0.9-0.9V3
	C17.9,2.5,17.5,2.1,17,2.1z"/>
</svg>
