<?xml version="1.0" encoding="utf-8"?>
<!-- Generated by IcoMoon.io -->
<!DOCTYPE svg PUBLIC "-//W3C//DTD SVG 1.1//EN" "http://www.w3.org/Graphics/SVG/1.1/DTD/svg11.dtd">
<svg version="1.1" xmlns="http://www.w3.org/2000/svg" xmlns:xlink="http://www.w3.org/1999/xlink" width="20" height="20" viewBox="0 0 20 20">
<path d="M17.631 5.93c-0.394-0.913-1.185-1.682-2.281-2.158-0.968-0.422-2.012-0.471-2.96-0.214s-1.801 0.956-2.388 1.767c-0.588-0.811-1.44-1.511-2.389-1.767-0.949-0.258-1.991-0.207-2.96 0.214-1.096 0.476-1.885 1.243-2.281 2.158-0.394 0.912-0.397 1.974 0.103 3.027 1.062 2.257 7.494 7.55 7.529 7.64 0.033-0.090 6.466-5.383 7.53-7.64 0.498-1.053 0.496-2.115 0.101-3.027z" fill="#444444"></path>
</svg>
