<?xml version="1.0" encoding="utf-8"?>
<!-- Generated by IcoMoon.io -->
<!DOCTYPE svg PUBLIC "-//W3C//DTD SVG 1.1//EN" "http://www.w3.org/Graphics/SVG/1.1/DTD/svg11.dtd">
<svg version="1.1" xmlns="http://www.w3.org/2000/svg" xmlns:xlink="http://www.w3.org/1999/xlink" width="20" height="20" viewBox="0 0 20 20">
<path d="M10 19.167c-5.054 0-9.167-4.112-9.167-9.167s4.112-9.167 9.167-9.167c5.055 0 9.167 4.112 9.167 9.167s-4.112 9.167-9.167 9.167zM10 2.308c-4.241 0-7.692 3.45-7.692 7.692s3.45 7.692 7.692 7.692c4.241 0 7.692-3.451 7.692-7.692s-3.451-7.692-7.692-7.692z" fill="#444444"></path>
<path d="M11.75 13.305l-0.117 0.482c-0.353 0.139-0.635 0.245-0.846 0.318s-0.455 0.11-0.733 0.11c-0.428 0-0.761-0.104-0.998-0.313s-0.356-0.473-0.356-0.795c0-0.125 0.009-0.252 0.027-0.382s0.047-0.277 0.086-0.442l0.442-1.563c0.039-0.15 0.072-0.292 0.099-0.426s0.040-0.256 0.040-0.367c0-0.2-0.042-0.339-0.123-0.417s-0.239-0.118-0.473-0.118c-0.115 0-0.232 0.018-0.352 0.053s-0.223 0.069-0.308 0.102l0.117-0.482c0.289-0.118 0.567-0.218 0.831-0.303s0.515-0.126 0.75-0.126c0.426 0 0.752 0.103 0.983 0.308s0.346 0.472 0.346 0.8c0 0.067-0.008 0.188-0.024 0.358s-0.046 0.328-0.088 0.471l-0.44 1.557c-0.036 0.125-0.068 0.268-0.097 0.428s-0.043 0.282-0.043 0.364c0 0.207 0.047 0.348 0.138 0.422s0.253 0.113 0.481 0.113c0.107 0 0.228-0.018 0.363-0.056s0.234-0.070 0.295-0.098zM11.863 6.77c0 0.271-0.103 0.503-0.308 0.693s-0.453 0.287-0.741 0.287-0.537-0.096-0.744-0.287-0.31-0.422-0.31-0.693c0-0.271 0.103-0.503 0.31-0.696s0.455-0.289 0.744-0.289 0.536 0.097 0.741 0.289c0.205 0.193 0.308 0.425 0.308 0.696z" fill="#444444"></path>
</svg>
