<?xml version="1.0" encoding="utf-8"?>
<!-- Generated by IcoMoon.io -->
<!DOCTYPE svg PUBLIC "-//W3C//DTD SVG 1.1//EN" "http://www.w3.org/Graphics/SVG/1.1/DTD/svg11.dtd">
<svg version="1.1" xmlns="http://www.w3.org/2000/svg" xmlns:xlink="http://www.w3.org/1999/xlink" width="20" height="20" viewBox="0 0 20 20">
<path d="M4.605 1.934c0.199 0 0.366 0.169 0.366 0.366v2.305c0 0.199-0.169 0.366-0.366 0.366h-2.305c-0.199 0-0.366-0.169-0.366-0.366v-2.305c0-0.199 0.169-0.366 0.366-0.366h2.305zM4.605 0.834h-2.305c-0.806 0-1.466 0.66-1.466 1.466v2.305c0 0.806 0.66 1.466 1.466 1.466h2.305c0.806 0 1.466-0.66 1.466-1.466v-2.305c0-0.806-0.66-1.466-1.466-1.466v0z" fill="#444444"></path>
<path d="M11.152 1.934c0.199 0 0.366 0.169 0.366 0.366v2.305c0 0.199-0.169 0.366-0.366 0.366h-2.305c-0.199 0-0.366-0.169-0.366-0.366v-2.305c0-0.199 0.169-0.366 0.366-0.366h2.305zM11.152 0.834h-2.305c-0.806 0-1.466 0.66-1.466 1.466v2.305c0 0.806 0.66 1.466 1.466 1.466h2.305c0.806 0 1.466-0.66 1.466-1.466v-2.305c0-0.806-0.66-1.466-1.466-1.466v0z" fill="#444444"></path>
<path d="M17.7 1.934c0.199 0 0.366 0.169 0.366 0.366v2.305c0 0.199-0.169 0.366-0.366 0.366h-2.305c-0.199 0-0.366-0.169-0.366-0.366v-2.305c0-0.199 0.169-0.366 0.366-0.366h2.305zM17.7 0.834h-2.305c-0.806 0-1.466 0.66-1.466 1.466v2.305c0 0.806 0.66 1.466 1.466 1.466h2.305c0.806 0 1.466-0.66 1.466-1.466v-2.305c0-0.806-0.66-1.466-1.466-1.466v0z" fill="#444444"></path>
<path d="M17.7 8.481c0.199 0 0.366 0.169 0.366 0.366v2.305c0 0.199-0.169 0.366-0.366 0.366h-2.305c-0.199 0-0.366-0.169-0.366-0.366v-2.305c0-0.199 0.169-0.366 0.366-0.366h2.305zM17.7 7.381h-2.305c-0.806 0-1.466 0.66-1.466 1.466v2.305c0 0.806 0.66 1.466 1.466 1.466h2.305c0.806 0 1.466-0.66 1.466-1.466v-2.305c0-0.806-0.66-1.466-1.466-1.466v0z" fill="#444444"></path>
<path d="M4.605 8.481c0.199 0 0.366 0.169 0.366 0.366v2.305c0 0.199-0.169 0.366-0.366 0.366h-2.305c-0.199 0-0.366-0.169-0.366-0.366v-2.305c0-0.199 0.169-0.366 0.366-0.366h2.305zM4.605 7.381h-2.305c-0.806 0-1.466 0.66-1.466 1.466v2.305c0 0.806 0.66 1.466 1.466 1.466h2.305c0.806 0 1.466-0.66 1.466-1.466v-2.305c0-0.806-0.66-1.466-1.466-1.466v0z" fill="#444444"></path>
<path d="M17.7 15.029c0.199 0 0.366 0.169 0.366 0.366v2.305c0 0.199-0.169 0.366-0.366 0.366h-2.305c-0.199 0-0.366-0.169-0.366-0.366v-2.305c0-0.199 0.169-0.366 0.366-0.366h2.305zM17.7 13.929h-2.305c-0.806 0-1.466 0.66-1.466 1.466v2.305c0 0.806 0.66 1.466 1.466 1.466h2.305c0.806 0 1.466-0.66 1.466-1.466v-2.305c0-0.806-0.66-1.466-1.466-1.466v0z" fill="#444444"></path>
<path d="M11.152 15.029c0.199 0 0.366 0.169 0.366 0.366v2.305c0 0.199-0.169 0.366-0.366 0.366h-2.305c-0.199 0-0.366-0.169-0.366-0.366v-2.305c0-0.199 0.169-0.366 0.366-0.366h2.305zM11.152 13.929h-2.305c-0.806 0-1.466 0.66-1.466 1.466v2.305c0 0.806 0.66 1.466 1.466 1.466h2.305c0.806 0 1.466-0.66 1.466-1.466v-2.305c0-0.806-0.66-1.466-1.466-1.466v0z" fill="#444444"></path>
<path d="M4.605 15.029c0.199 0 0.366 0.169 0.366 0.366v2.305c0 0.199-0.169 0.366-0.366 0.366h-2.305c-0.199 0-0.366-0.169-0.366-0.366v-2.305c0-0.199 0.169-0.366 0.366-0.366h2.305zM4.605 13.929h-2.305c-0.806 0-1.466 0.66-1.466 1.466v2.305c0 0.806 0.66 1.466 1.466 1.466h2.305c0.806 0 1.466-0.66 1.466-1.466v-2.305c0-0.806-0.66-1.466-1.466-1.466v0z" fill="#444444"></path>
<path d="M8.473 12.291l3.055-2.444-3.055-2.139z" fill="#444444"></path>
</svg>
