<?xml version="1.0" encoding="utf-8"?>
<!-- Generated by IcoMoon.io -->
<!DOCTYPE svg PUBLIC "-//W3C//DTD SVG 1.1//EN" "http://www.w3.org/Graphics/SVG/1.1/DTD/svg11.dtd">
<svg version="1.1" xmlns="http://www.w3.org/2000/svg" xmlns:xlink="http://www.w3.org/1999/xlink" width="20" height="20" viewBox="0 0 20 20">
<path d="M5 8.334c-0.916 0-1.666 0.75-1.666 1.666s0.75 1.666 1.666 1.666c0.916 0 1.666-0.75 1.666-1.666s-0.75-1.666-1.666-1.666zM15 8.334c-0.916 0-1.666 0.75-1.666 1.666s0.75 1.666 1.666 1.666c0.916 0 1.666-0.75 1.666-1.666s-0.75-1.666-1.666-1.666zM10 8.334c-0.916 0-1.666 0.75-1.666 1.666s0.75 1.666 1.666 1.666c0.916 0 1.666-0.75 1.666-1.666s-0.75-1.666-1.666-1.666z" fill="#444444"></path>
</svg>
