<?xml version="1.0" encoding="utf-8"?>
<!-- Generator: Adobe Illustrator 17.1.0, SVG Export Plug-In . SVG Version: 6.00 Build 0)  -->
<!DOCTYPE svg PUBLIC "-//W3C//DTD SVG 1.1//EN" "http://www.w3.org/Graphics/SVG/1.1/DTD/svg11.dtd">
<svg version="1.1" id="Layer_1" xmlns="http://www.w3.org/2000/svg" xmlns:xlink="http://www.w3.org/1999/xlink" x="0px" y="0px"
	 viewBox="0 0 20 20" enable-background="new 0 0 20 20" xml:space="preserve">
<g>
	<path d="M16.1,7.8h-2.2V4.9C13.9,2.8,12.2,1,10,1S6.1,2.8,6.1,4.9v2.9H3.9C3.2,7.8,2.7,8.3,2.7,9v8.8c0,0.7,0.5,1.2,1.2,1.2h12.2
		c0.7,0,1.2-0.5,1.2-1.2V9C17.3,8.3,16.8,7.8,16.1,7.8z M7.1,4.9C7.1,3.3,8.4,2,10,2s2.9,1.3,2.9,2.9v2.9H12V4.9c0-1.1-0.9-2-2-2
		s-2,0.9-2,2v2.9H7.1V4.9z M10.9,7.8H9.1V4.9C9.1,4.4,9.5,4,10,4s0.9,0.4,0.9,0.9V7.8z M16.3,17.8c0,0.1-0.1,0.2-0.2,0.2H3.9
		c-0.1,0-0.2-0.1-0.2-0.2V9c0-0.1,0.1-0.2,0.2-0.2h2.2h3h1.9h3h2.2c0.1,0,0.2,0.1,0.2,0.2V17.8z"/>
	<path d="M10,10.3c-1.2,0-2.2,1-2.2,2.2c0,0.7,0.3,1.3,0.8,1.7v1.7c0,0.3,0.2,0.5,0.5,0.5h1.7c0.3,0,0.5-0.2,0.5-0.5v-1.7
		c0.5-0.4,0.8-1.1,0.8-1.7C12.2,11.3,11.2,10.3,10,10.3z M10.6,13.6c-0.2,0.1-0.3,0.3-0.3,0.4v1.4H9.7V14c0-0.2-0.1-0.3-0.3-0.4
		c-0.4-0.2-0.6-0.6-0.6-1c0-0.7,0.5-1.2,1.2-1.2s1.2,0.5,1.2,1.2C11.2,13,11,13.4,10.6,13.6z"/>
</g>
</svg>
