<?xml version="1.0" encoding="utf-8"?>
<!-- Generated by IcoMoon.io -->
<!DOCTYPE svg PUBLIC "-//W3C//DTD SVG 1.1//EN" "http://www.w3.org/Graphics/SVG/1.1/DTD/svg11.dtd">
<svg version="1.1" xmlns="http://www.w3.org/2000/svg" xmlns:xlink="http://www.w3.org/1999/xlink" width="20" height="20" viewBox="0 0 20 20">
<path d="M17.457 1.228h-14.912c-0.726 0-1.316 0.589-1.316 1.316v14.912c0 0.726 0.589 1.316 1.316 1.316h14.912c0.726 0 1.316-0.589 1.316-1.316v-14.912c0-0.726-0.589-1.316-1.316-1.316zM17.237 17.237h-14.474v-14.474h14.474v14.474z" fill="#444444"></path>
<path d="M13.859 7.588c0 0.678-0.55 1.228-1.228 1.228s-1.228-0.55-1.228-1.228c0-0.678 0.55-1.228 1.228-1.228s1.228 0.55 1.228 1.228z" fill="#444444"></path>
<path d="M4.737 15.833h10.526c0.193 0 0.351-0.158 0.351-0.351v-3.509c0-0.122-0.063-0.236-0.167-0.299s-0.233-0.070-0.341-0.016l-3.351 1.676-6.861-3.43c-0.109-0.054-0.238-0.049-0.341 0.016s-0.167 0.176-0.167 0.299v5.263c0 0.193 0.157 0.351 0.351 0.351z" fill="#444444"></path>
</svg>
