<?xml version="1.0" encoding="utf-8"?>
<!-- Generator: Adobe Illustrator 18.1.1, SVG Export Plug-In . SVG Version: 6.00 Build 0)  -->
<svg version="1.1" id="Layer_1" xmlns="http://www.w3.org/2000/svg" xmlns:xlink="http://www.w3.org/1999/xlink" x="0px" y="0px"
	 viewBox="0 0 20 20" enable-background="new 0 0 20 20" xml:space="preserve">
<path fill="#010101" d="M11.1,8.2c-0.5,0-0.9,0.4-0.9,0.9s0.4,0.9,0.9,0.9S12,9.6,12,9.1S11.6,8.2,11.1,8.2z M3.7,16.4L3.7,16.4l0-5
	l6.4,2.8l3.1-1.7v3.9H3.7z M19,2.2v11.9c0,0.6-0.5,1.1-1.1,1.1h-2.5v2.5c0,0.6-0.5,1.1-1.1,1.1H2.5c-0.6,0-1.1-0.5-1.1-1.1V5.7
	c0-0.6,0.5-1.1,1.1-1.1H5V2.2C5,1.7,5.4,1.2,6,1.2H18C18.5,1.2,19,1.7,19,2.2z M14.1,6.1H2.9v11.2h11.2C14.1,17.3,14.1,6.1,14.1,6.1
	z M17.6,2.6H6.4v2.1h8.1c0.6,0,1.1,0.5,1.1,1.1v8.1h2.1C17.6,13.8,17.6,2.6,17.6,2.6z"/>
</svg>
