<?xml version="1.0" encoding="utf-8"?>
<!-- Generated by IcoMoon.io -->
<!DOCTYPE svg PUBLIC "-//W3C//DTD SVG 1.1//EN" "http://www.w3.org/Graphics/SVG/1.1/DTD/svg11.dtd">
<svg version="1.1" xmlns="http://www.w3.org/2000/svg" xmlns:xlink="http://www.w3.org/1999/xlink" width="20" height="20" viewBox="0 0 20 20">
<path d="M19.14 9.652l-2.416 2.418c-0.124 0.124-0.293 0.194-0.468 0.194s-0.341-0.069-0.467-0.194l-2.415-2.418c-0.258-0.258-0.258-0.676 0-0.935s0.676-0.258 0.935 0l1.286 1.289v-0.006c0-3.2-2.601-5.803-5.803-5.803s-5.804 2.602-5.804 5.803 2.604 5.802 5.804 5.802c1.55 0 3.006-0.604 4.104-1.699 0.257-0.258 0.676-0.258 0.934 0s0.257 0.676 0 0.934c-1.345 1.346-3.134 2.086-5.037 2.086-3.929 0-7.126-3.196-7.126-7.124s3.196-7.124 7.126-7.124 7.124 3.195 7.124 7.124v0.006l1.289-1.289c0.258-0.258 0.676-0.258 0.935 0s0.259 0.676 0.001 0.934z" fill="#444444"></path>
</svg>
