<?xml version="1.0" encoding="utf-8"?>
<!-- Generated by IcoMoon.io -->
<!DOCTYPE svg PUBLIC "-//W3C//DTD SVG 1.1//EN" "http://www.w3.org/Graphics/SVG/1.1/DTD/svg11.dtd">
<svg version="1.1" xmlns="http://www.w3.org/2000/svg" xmlns:xlink="http://www.w3.org/1999/xlink" width="20" height="20" viewBox="0 0 20 20">
<path d="M11.863 8.602h-5.010l2.272-2.272c0.545-0.545 0.545-1.431 0-1.975s-1.43-0.545-1.975 0l-4.655 4.655c-0.131 0.129-0.234 0.286-0.305 0.458-0.004 0.007-0.004 0.014-0.006 0.020-0.063 0.159-0.1 0.33-0.1 0.511s0.037 0.352 0.099 0.509c0.002 0.007 0.004 0.014 0.006 0.020 0.071 0.172 0.175 0.329 0.305 0.458l4.655 4.655c0.273 0.273 0.631 0.41 0.988 0.41s0.715-0.137 0.988-0.41c0.545-0.545 0.545-1.43 0-1.975l-2.272-2.272h5.010c3.060 0 3.253 2.723 3.26 3.26 0 0.771 0.626 1.398 1.398 1.398s1.397-0.626 1.397-1.398c0-2.433-1.613-6.054-6.054-6.054z" fill="#444444"></path>
</svg>
