<?xml version="1.0" encoding="utf-8"?>
<!-- Generated by IcoMoon.io -->
<!DOCTYPE svg PUBLIC "-//W3C//DTD SVG 1.1//EN" "http://www.w3.org/Graphics/SVG/1.1/DTD/svg11.dtd">
<svg version="1.1" xmlns="http://www.w3.org/2000/svg" xmlns:xlink="http://www.w3.org/1999/xlink" width="20" height="20" viewBox="0 0 20 20">
<path d="M2.2,8.9c0,1,0.3,1.9,1,2.8c0.7,0.9,1.6,1.5,2.8,2c1.2,0.5,2.5,0.7,3.9,0.7c0.4,0,0.8,0,1.3-0.1c1.1,1,2.5,1.7,4,2.1
	c0.3,0.1,0.6,0.1,1,0.2c0.1,0,0.2,0,0.3-0.1c0.1-0.1,0.1-0.1,0.2-0.3v0c0,0,0-0.1,0-0.1c0,0,0-0.1,0-0.1c0,0,0,0,0-0.1L16.5,16
	c0,0,0,0-0.1-0.1c0,0-0.1-0.1-0.1-0.1c0,0-0.1-0.1-0.3-0.3c-0.1-0.2-0.2-0.3-0.3-0.3s-0.2-0.2-0.3-0.3c-0.1-0.2-0.2-0.3-0.3-0.4
	c-0.1-0.1-0.1-0.3-0.2-0.5s-0.2-0.4-0.2-0.7c0.9-0.5,1.6-1.2,2.1-1.9s0.8-1.6,0.8-2.4c0-0.8-0.2-1.5-0.6-2.2s-1-1.3-1.7-1.8
	S14,4.1,13,3.8s-2-0.4-3-0.4c-1.4,0-2.7,0.2-3.9,0.7S4,5.2,3.3,6.1S2.2,7.9,2.2,8.9z"/>
</svg>
