<?xml version="1.0" encoding="utf-8"?>
<!-- Generator: Adobe Illustrator 17.1.0, SVG Export Plug-In . SVG Version: 6.00 Build 0)  -->
<!DOCTYPE svg PUBLIC "-//W3C//DTD SVG 1.1//EN" "http://www.w3.org/Graphics/SVG/1.1/DTD/svg11.dtd">
<svg version="1.1" id="Layer_1" xmlns="http://www.w3.org/2000/svg" xmlns:xlink="http://www.w3.org/1999/xlink" x="0px" y="0px"
	 viewBox="0 0 20 20" enable-background="new 0 0 20 20" xml:space="preserve">
<path d="M10,0.8c-5.1,0-9.2,4.1-9.2,9.2s4.1,9.2,9.2,9.2s9.2-4.1,9.2-9.2S15.1,0.8,10,0.8z M10,17.7
	c-4.2,0-7.7-3.5-7.7-7.7S5.8,2.3,10,2.3c4.2,0,7.7,3.5,7.7,7.7S14.2,17.7,10,17.7z"/>
<path d="M14.3,10c0-0.1,0-0.3-0.1-0.4c0-0.1-0.1-0.2-0.2-0.3l-3.4-3.4c-0.4-0.4-1-0.4-1.4,0C9,6.3,9,6.9,9.3,7.3L11.1,9H6.6
	c-0.5,0-1,0.4-1,1c0,0.5,0.4,1,1,1h4.5l-1.7,1.7c-0.4,0.4-0.4,1,0,1.4c0.2,0.2,0.4,0.3,0.7,0.3c0.2,0,0.5-0.1,0.7-0.3l3.4-3.4
	c0.1-0.1,0.2-0.2,0.2-0.3C14.3,10.3,14.3,10.1,14.3,10z"/>
</svg>
