<?xml version="1.0" encoding="utf-8"?>
<!-- Generated by IcoMoon.io -->
<!DOCTYPE svg PUBLIC "-//W3C//DTD SVG 1.1//EN" "http://www.w3.org/Graphics/SVG/1.1/DTD/svg11.dtd">
<svg version="1.1" xmlns="http://www.w3.org/2000/svg" xmlns:xlink="http://www.w3.org/1999/xlink" width="20" height="20" viewBox="0 0 20 20">
<path d="M16.049 10.826c0-0.245 0.082-0.492 0.082-0.819s0-0.573-0.082-0.819l1.72-1.392c0.164-0.164 0.164-0.327 0.082-0.492l-1.637-2.865c-0.082-0.082-0.245-0.164-0.492-0.082l-2.046 0.819c-0.409-0.327-0.901-0.573-1.392-0.819l-0.327-2.129c0.082-0.245-0.164-0.409-0.327-0.409h-3.275c-0.164 0-0.409 0.164-0.409 0.327l-0.328 2.211c-0.491 0.164-0.9 0.491-1.392 0.819l-1.964-0.819c-0.245-0.082-0.409 0-0.573 0.164l-1.638 2.865c-0.082 0.082 0 0.327 0.164 0.492l1.72 1.31c0 0.245-0.082 0.492-0.082 0.819s0 0.573 0.082 0.819l-1.72 1.392c-0.164 0.164-0.164 0.327-0.082 0.492l1.637 2.865c0.082 0.082 0.245 0.164 0.492 0.082l2.046-0.819c0.409 0.327 0.901 0.573 1.392 0.819l0.327 2.129c0 0.164 0.164 0.327 0.409 0.327h3.274c0.164 0 0.409-0.164 0.409-0.327l0.327-2.129c0.492-0.245 0.982-0.492 1.392-0.819l2.046 0.819c0.164 0.082 0.409 0 0.492-0.164l1.637-2.865c0.082-0.164 0.082-0.409-0.082-0.492l-1.881-1.31zM9.991 12.872c-1.555 0-2.865-1.31-2.865-2.865s1.31-2.865 2.865-2.865 2.865 1.31 2.865 2.865-1.31 2.865-2.865 2.865z" fill="#444444"></path>
</svg>
