<?xml version="1.0" encoding="utf-8"?>
<!-- Generator: Adobe Illustrator 17.1.0, SVG Export Plug-In . SVG Version: 6.00 Build 0)  -->
<!DOCTYPE svg PUBLIC "-//W3C//DTD SVG 1.1//EN" "http://www.w3.org/Graphics/SVG/1.1/DTD/svg11.dtd">
<svg version="1.1" id="Layer_1" xmlns="http://www.w3.org/2000/svg" xmlns:xlink="http://www.w3.org/1999/xlink" x="0px" y="0px"
	 viewBox="0 0 20 20" enable-background="new 0 0 20 20" xml:space="preserve">
<path d="M18.4,8.6c-0.5,0-1,0-1.5,0c-0.7,0-1.2-0.4-1.4-1c-0.2-0.6,0-1.1,0.4-1.5c0.3-0.4,0.7-0.7,1-1c0,0,0,0,0,0
	c-0.7-0.7-1.3-1.3-2-2c0,0,0,0,0,0.1c-0.3,0.3-0.7,0.7-1,1c-0.1,0.1-0.3,0.3-0.5,0.3c-0.9,0.4-2-0.3-2-1.3c0-0.5,0-1,0-1.5
	c0,0,0-0.1,0-0.1c-0.9,0-1.9,0-2.8,0c0,0,0,0.1,0,0.1c0,0.5,0,0.9,0,1.4c0,0.5-0.2,0.9-0.6,1.2C7.4,4.6,6.6,4.6,6,4
	C5.7,3.7,5.4,3.4,5,3C5,3,5,3,5,3C4.3,3.7,3.7,4.3,3,5C3,5,3,5,3.1,5c0.3,0.3,0.7,0.7,1,1c0.3,0.4,0.5,0.8,0.4,1.3
	C4.4,8.1,3.8,8.6,3.1,8.6c-0.5,0-1,0-1.5,0c0,0-0.1,0-0.1,0c0,0,0,0.1,0,0.1c0,0.9,0,1.8,0,2.7c0,0.1,0,0.1,0.1,0.1
	c0.5,0,0.9,0,1.4,0c0.3,0,0.6,0,0.8,0.2c0.6,0.3,0.9,0.9,0.8,1.5c-0.1,0.3-0.3,0.6-0.5,0.9c-0.3,0.3-0.7,0.7-1,1C3,15,3,15,3,15
	c0.7,0.7,1.3,1.3,2,2c0,0,0,0,0.1-0.1c0.3-0.3,0.7-0.7,1-1c0.1-0.1,0.3-0.2,0.5-0.3c0.9-0.4,2.1,0.3,2,1.4c0,0.5,0,1,0,1.4
	c0,0,0,0.1,0,0.1c0.9,0,1.9,0,2.8,0c0,0,0-0.1,0-0.1c0-0.5,0-0.9,0-1.4c0-0.2,0-0.4,0.1-0.6c0.2-0.6,0.8-1,1.5-0.9
	c0.4,0,0.7,0.2,0.9,0.5c0.4,0.3,0.7,0.7,1.1,1.1c0,0,0,0,0,0c0.7-0.7,1.3-1.3,2-2c0,0,0,0-0.1-0.1c-0.3-0.3-0.7-0.7-1-1
	c-0.1-0.1-0.3-0.3-0.4-0.5c-0.3-0.6-0.2-1.2,0.3-1.6c0.3-0.3,0.7-0.4,1-0.4c0.5,0,1,0,1.5,0c0,0,0.1,0,0.1,0
	C18.5,10.5,18.5,9.5,18.4,8.6C18.5,8.6,18.4,8.6,18.4,8.6z M10,14.4c-2.4,0-4.4-2-4.4-4.4c0-2.4,2-4.4,4.4-4.4c2.4,0,4.4,2,4.4,4.4
	C14.4,12.4,12.4,14.4,10,14.4z"/>
</svg>
