<?xml version="1.0" encoding="utf-8"?>
<!-- Generator: Adobe Illustrator 18.1.1, SVG Export Plug-In . SVG Version: 6.00 Build 0)  -->
<svg version="1.1" id="Layer_1" xmlns="http://www.w3.org/2000/svg" xmlns:xlink="http://www.w3.org/1999/xlink" x="0px" y="0px"
	 viewBox="0 0 20 20" enable-background="new 0 0 20 20" xml:space="preserve">

  <!-- Official share icon, for Android… https://developer.android.com/design/downloads/index.html#action-bar-icon-pack -->
  <path d="M15.5,13.2c-0.8,0-1.5,0.4-2,0.9l-6.4-3.5c0.1-0.2,0.1-0.5,0.1-0.7s0-0.5-0.1-0.7l6.4-3.5c0.5,0.6,1.2,0.9,2,0.9
  c1.5,0,2.7-1.2,2.7-2.7c0-1.5-1.2-2.7-2.7-2.7c-1.5,0-2.7,1.2-2.7,2.7c0,0.3,0,0.5,0.1,0.7L6.5,8.2C6,7.7,5.3,7.3,4.5,7.3
  C3,7.3,1.8,8.5,1.8,10s1.2,2.7,2.7,2.7c0.8,0,1.5-0.4,2-0.9l6.4,3.5c-0.1,0.2-0.1,0.5-0.1,0.7c0,1.5,1.2,2.7,2.7,2.7
  c1.5,0,2.7-1.2,2.7-2.7C18.2,14.5,17,13.2,15.5,13.2z"/>

</svg>
