<?xml version="1.0" encoding="utf-8"?>
<!-- Generator: Adobe Illustrator 18.1.1, SVG Export Plug-In . SVG Version: 6.00 Build 0)  -->
<svg version="1.1" id="Layer_1" xmlns="http://www.w3.org/2000/svg" xmlns:xlink="http://www.w3.org/1999/xlink" x="0px" y="0px"
	 viewBox="0 0 20 20" enable-background="new 0 0 20 20" xml:space="preserve">
<path fill="#454545" d="M0.7,8c0,0.2,0.1,0.3,0.3,0.5l4.1,4l-1,5.6c0,0.1,0,0.1,0,0.2c0,0.2,0,0.3,0.1,0.4s0.2,0.2,0.3,0.2
	c0.1,0,0.3,0,0.4-0.1l5-2.7l5,2.7c0.2,0.1,0.3,0.1,0.4,0.1c0.2,0,0.3-0.1,0.4-0.2s0.1-0.2,0.1-0.4c0,0,0-0.1,0-0.2l-1-5.6l4.1-4
	c0.2-0.2,0.3-0.4,0.3-0.5c0-0.3-0.2-0.4-0.6-0.5l-5.6-0.8l-2.5-5.1c-0.1-0.3-0.3-0.5-0.6-0.5S9.6,1.2,9.4,1.5L6.9,6.7L1.3,7.5
	C0.9,7.5,0.7,7.7,0.7,8z"/>
</svg>
