<?xml version="1.0" encoding="utf-8"?>
<!-- Generated by IcoMoon.io -->
<!DOCTYPE svg PUBLIC "-//W3C//DTD SVG 1.1//EN" "http://www.w3.org/Graphics/SVG/1.1/DTD/svg11.dtd">
<svg version="1.1" xmlns="http://www.w3.org/2000/svg" xmlns:xlink="http://www.w3.org/1999/xlink" width="20" height="20" viewBox="0 0 20 20">
<path d="M16.856 4.11c0.076-0.181 0.076-0.384 0-0.566-0.037-0.091-0.091-0.174-0.161-0.241l-3.086-3.086c-0.289-0.289-0.759-0.289-1.047 0s-0.289 0.759 0 1.048l1.821 1.821h-10.557c-0.409 0-0.741 0.331-0.741 0.741v6.174c0 0.409 0.331 0.741 0.741 0.741s0.741-0.331 0.741-0.741v-5.431h9.816l-1.821 1.822c-0.289 0.289-0.289 0.759 0 1.048 0.144 0.144 0.334 0.216 0.524 0.216s0.379-0.072 0.524-0.216l3.086-3.086c0.069-0.069 0.123-0.151 0.161-0.242z" fill="#444444"></path>
<path d="M16.174 9.259c-0.409 0-0.741 0.331-0.741 0.741v5.431h-9.816l1.821-1.821c0.289-0.289 0.289-0.759 0-1.047s-0.759-0.289-1.047 0l-3.086 3.085c-0.069 0.068-0.123 0.149-0.16 0.239s-0.057 0.186-0.057 0.284c0 0.099 0.020 0.196 0.057 0.284 0.037 0.090 0.091 0.171 0.16 0.239l3.086 3.086c0.144 0.147 0.334 0.22 0.524 0.22s0.379-0.073 0.524-0.216c0.289-0.289 0.289-0.759 0-1.047l-1.823-1.823h10.558c0.409 0 0.741-0.331 0.741-0.741v-6.172c0.001-0.409-0.331-0.741-0.739-0.741z" fill="#444444"></path>
</svg>
