<?xml version="1.0" encoding="utf-8"?>
<!-- Generated by IcoMoon.io -->
<!DOCTYPE svg PUBLIC "-//W3C//DTD SVG 1.1//EN" "http://www.w3.org/Graphics/SVG/1.1/DTD/svg11.dtd">
<svg version="1.1" xmlns="http://www.w3.org/2000/svg" xmlns:xlink="http://www.w3.org/1999/xlink" width="20" height="20" viewBox="0 0 20 20">
<path d="M16.364 6.196l-3.636 3.636h2.727c0 3-2.454 5.454-5.454 5.454-0.909 0-1.819-0.273-2.546-0.636l-1.364 1.364c1.181 0.636 2.454 1.091 3.909 1.091 4 0 7.273-3.273 7.273-7.272h2.726l-3.636-3.636zM4.546 9.834c0-3 2.454-5.454 5.454-5.454 0.909 0 1.819 0.273 2.546 0.636l1.364-1.364c-1.181-0.638-2.455-1.091-3.909-1.091-4 0-7.272 3.273-7.272 7.272h-2.728l3.636 3.636 3.636-3.636h-2.726z" fill="#444444"></path>
</svg>
