<?xml version="1.0" encoding="utf-8"?>
<!-- Generator: Adobe Illustrator 17.1.0, SVG Export Plug-In . SVG Version: 6.00 Build 0)  -->
<!DOCTYPE svg PUBLIC "-//W3C//DTD SVG 1.1//EN" "http://www.w3.org/Graphics/SVG/1.1/DTD/svg11.dtd">
<svg version="1.1" id="Layer_1" xmlns="http://www.w3.org/2000/svg" xmlns:xlink="http://www.w3.org/1999/xlink" x="0px" y="0px"
	 viewBox="0 0 20 20" enable-background="new 0 0 20 20" xml:space="preserve">
<g>
	<path id="XMLID_71_" fill="#444444" d="M12.7,14.7H0.3c0-1.7,2.8-3.1,6.2-3.1C9.9,11.6,12.7,12.9,12.7,14.7z M9.6,8.4
		c0-1.7-1.4-3.1-3.1-3.1c-1.7,0-3.1,1.4-3.1,3.1s1.4,3.1,3.1,3.1C8.2,11.6,9.6,10.2,9.6,8.4z"/>
	<path id="XMLID_74_" fill="#444444" d="M14.8,11.2c-1.2,0-2.4,0.2-3.2,0.6c1.1,0.5,1.7,1.1,1.7,1.9h6.5
		C19.7,12.4,17.5,11.2,14.8,11.2z M17.2,8.8c0-1.4-1.1-2.5-2.5-2.5c-1.4,0-2.5,1.1-2.5,2.5c0,1.4,1.1,2.5,2.5,2.5
		C16.1,11.2,17.2,10.1,17.2,8.8z"/>
</g>
</svg>
