<?xml version="1.0" encoding="utf-8"?>
<!-- Generated by IcoMoon.io -->
<!DOCTYPE svg PUBLIC "-//W3C//DTD SVG 1.1//EN" "http://www.w3.org/Graphics/SVG/1.1/DTD/svg11.dtd">
<svg version="1.1" xmlns="http://www.w3.org/2000/svg" xmlns:xlink="http://www.w3.org/1999/xlink" width="20" height="20" viewBox="0 0 20 20">
<path d="M12.248 8.876c0 1.241-1.006 2.248-2.248 2.248s-2.248-1.006-2.248-2.248c0-1.241 1.006-2.247 2.248-2.247s2.248 1.006 2.248 2.247z" fill="#444444"></path>
<path d="M10 11.124c-2.484 0-4.496 1.006-4.496 2.248h8.991c0-1.241-2.014-2.248-4.496-2.248z" fill="#444444"></path>
<path d="M10 0.834c-5.054 0-9.166 4.112-9.166 9.166s4.113 9.166 9.166 9.166c5.055 0 9.166-4.111 9.166-9.166s-4.111-9.166-9.166-9.166zM10 17.691c-4.241 0-7.691-3.451-7.691-7.691s3.45-7.691 7.691-7.691c4.241 0 7.691 3.45 7.691 7.691s-3.451 7.691-7.691 7.691z" fill="#444444"></path>
</svg>
