<?xml version="1.0" encoding="utf-8"?>
<!-- Generator: Adobe Illustrator 17.0.0, SVG Export Plug-In . SVG Version: 6.00 Build 0)  -->
<!DOCTYPE svg PUBLIC "-//W3C//DTD SVG 1.1//EN" "http://www.w3.org/Graphics/SVG/1.1/DTD/svg11.dtd">
<svg version="1.1" id="Layer_1" xmlns="http://www.w3.org/2000/svg" xmlns:xlink="http://www.w3.org/1999/xlink" x="0px" y="0px"
	 width="24px" height="24px" viewBox="0 0 24 24" enable-background="new 0 0 24 24" xml:space="preserve">
<g>
	<path fill="white" d="M19.636,8.636L15.273,13h3.273c0,3.6-2.945,6.545-6.545,6.545c-1.091,0-2.182-0.327-3.055-0.764
		l-1.636,1.636c1.418,0.764,2.945,1.309,4.691,1.309c4.8,0,8.727-3.927,8.727-8.727H24L19.636,8.636z M5.455,13
		C5.455,9.4,8.4,6.455,12,6.455c1.091,0,2.182,0.327,3.055,0.764l1.636-1.636C15.273,4.818,13.745,4.273,12,4.273
		C7.2,4.273,3.273,8.2,3.273,13H0l4.364,4.364L8.727,13H5.455z"/>
</g>
</svg>
