<svg xmlns="http://www.w3.org/2000/svg" width="24px" height="24px" viewBox="0 0 24 24">
	<path fill="white" d="M16.598,10.506c0.445,0,0.805-0.361,0.805-0.805c0-0.444-0.36-0.805-0.805-0.805H15.61l0.219-1.367
		c0.07-0.439-0.228-0.852-0.667-0.922c-0.444-0.074-0.851,0.229-0.922,0.667l-0.259,1.621h-2.968l0.219-1.367
		c0.07-0.439-0.228-0.852-0.667-0.922c-0.436-0.071-0.851,0.229-0.922,0.667L9.383,8.896H7.402c-0.444,0-0.805,0.361-0.805,0.805
		c0,0.444,0.361,0.805,0.805,0.805h1.723l-0.478,2.988H7.402c-0.444,0-0.805,0.36-0.805,0.805c0,0.445,0.361,0.805,0.805,0.805H8.39
		l-0.219,1.367c-0.07,0.439,0.228,0.851,0.667,0.922c0.043,0.007,0.086,0.01,0.128,0.01c0.388,0,0.73-0.282,0.793-0.677l0.259-1.621
		h2.968l-0.219,1.367c-0.07,0.439,0.228,0.851,0.667,0.922c0.043,0.007,0.086,0.01,0.128,0.01c0.389,0,0.731-0.282,0.794-0.677
		l0.259-1.621h1.981c0.445,0,0.805-0.36,0.805-0.805c0-0.445-0.36-0.805-0.805-0.805h-1.723l0.478-2.988H16.598z M13.245,13.494
		h-2.968l0.478-2.988h2.968L13.245,13.494z"/>
	<path fill="white" d="M12,2C6.486,2,2,6.486,2,12c0,5.514,4.486,10,10,10c5.514,0,10-4.486,10-10C22,6.486,17.514,2,12,2z
		 M12,20.391c-4.627,0-8.391-3.764-8.391-8.391c0-4.627,3.764-8.391,8.391-8.391c4.626,0,8.391,3.764,8.391,8.391
		C20.391,16.626,16.626,20.391,12,20.391z"/>
</svg>
