<svg xmlns="http://www.w3.org/2000/svg" width="24px" height="24px" viewBox="0 0 24 24">
<path fill="white" d="M21.768,11.583l-2.9,2.901c-0.149,0.149-0.351,0.232-0.561,0.232s-0.41-0.083-0.561-0.232l-2.898-2.901
	c-0.309-0.309-0.309-0.811,0-1.122c0.309-0.309,0.811-0.309,1.122,0l1.544,1.546V12c0-3.84-3.122-6.963-6.963-6.963
	S3.586,8.16,3.586,12s3.124,6.963,6.965,6.963c1.86,0,3.608-0.724,4.925-2.038c0.309-0.309,0.811-0.309,1.12,0
	c0.309,0.309,0.309,0.811,0,1.12c-1.614,1.616-3.761,2.504-6.045,2.504C5.836,20.549,2,16.714,2,12s3.836-8.549,8.551-8.549
	S19.099,7.285,19.099,12v0.008l1.546-1.546c0.309-0.309,0.811-0.309,1.122,0C22.077,10.773,22.077,11.274,21.768,11.583z"/>
</svg>
