<?xml version="1.0" encoding="utf-8"?>
<!-- Generator: Adobe Illustrator 18.1.1, SVG Export Plug-In . SVG Version: 6.00 Build 0)  -->
<svg version="1.1" id="Layer_1" xmlns="http://www.w3.org/2000/svg" xmlns:xlink="http://www.w3.org/1999/xlink" x="0px" y="0px"
	 viewBox="0 0 20 20" width="20" height="20" enable-background="new 0 0 20 20" xml:space="preserve">
<g>
	<path d="M17.7,2.2C17,1.4,16,1,14.9,1c-1.1,0-2,0.4-2.8,1.2L8.5,5.8c-0.4,0.4-0.4,1,0,1.4c0.4,0.4,1,0.4,1.4,0
		l3.6-3.6C13.9,3.2,14.4,3,14.9,3c0.5,0,1,0.2,1.4,0.6c0.4,0.4,0.6,0.9,0.6,1.4c0,0.5-0.2,1-0.6,1.4L12.7,10c-0.4,0.4-0.4,1,0,1.4
		c0.2,0.2,0.4,0.3,0.7,0.3c0.3,0,0.5-0.1,0.7-0.3l3.6-3.6C18.4,7,18.9,6,18.9,4.9C18.9,3.9,18.4,2.9,17.7,2.2z" fill="white"/>
	<path d="M9.8,12.8l-3.6,3.6C5.8,16.8,5.3,17,4.8,17c-0.5,0-1-0.2-1.4-0.6c-0.8-0.8-0.8-2,0-2.8L7,10
		c0.4-0.4,0.4-1,0-1.4c-0.4-0.4-1-0.4-1.4,0L2,12.3c-1.5,1.5-1.5,4,0,5.6C2.8,18.6,3.7,19,4.8,19c1.1,0,2-0.4,2.8-1.2l3.6-3.6
		c0.4-0.4,0.4-1,0-1.4C10.8,12.4,10.2,12.4,9.8,12.8z" fill="white"/>
	<path d="M6.4,13.5c0.2,0.2,0.4,0.3,0.7,0.3c0.3,0,0.5-0.1,0.7-0.3l5.5-5.5c0.4-0.4,0.4-1,0-1.4
		c-0.4-0.4-1-0.4-1.4,0l-5.5,5.5C6,12.4,6,13.1,6.4,13.5z" fill="white"/>
</g>
</svg>
