<?xml version="1.0" encoding="utf-8"?>
<!-- Generated by IcoMoon.io -->
<!DOCTYPE svg PUBLIC "-//W3C//DTD SVG 1.1//EN" "http://www.w3.org/Graphics/SVG/1.1/DTD/svg11.dtd">
<svg version="1.1" xmlns="http://www.w3.org/2000/svg" xmlns:xlink="http://www.w3.org/1999/xlink" width="20" height="20" viewBox="0 0 20 20">
<path d="M17.777 0h-11.851c-1.225 0-2.223 0.996-2.223 2.223v1.481h-1.481c-1.226-0.001-2.222 0.996-2.222 2.221v11.851c0 1.226 0.996 2.223 2.222 2.223h11.851c1.225 0 2.223-0.996 2.223-2.223v-1.481h1.481c1.225 0 2.222-0.996 2.222-2.223v-11.851c-0.001-1.226-0.997-2.223-2.224-2.223zM14.815 17.777c0 0.409-0.331 0.741-0.741 0.741h-11.851c-0.409 0-0.741-0.331-0.741-0.741v-11.851c0-0.409 0.333-0.741 0.741-0.741h1.481v8.889c0 1.225 0.996 2.223 2.222 2.223h8.889v1.481zM14.815 14.815h-8.889c-0.409 0-0.741-0.331-0.741-0.741v-8.889h8.889c0.409 0 0.741 0.333 0.741 0.741v8.889zM18.519 14.074c0 0.409-0.331 0.741-0.741 0.741h-1.481v-8.889c0-1.225-0.996-2.222-2.223-2.222h-8.889v-1.481c0-0.409 0.332-0.741 0.741-0.741h11.851c0.409 0 0.741 0.333 0.741 0.741v11.851z"></path>
<path d="M8.611 12.315l3.088-2.469-3.088-2.161z"></path>
</svg>
