<?xml version="1.0" encoding="utf-8"?>
<!-- Generated by IcoMoon.io -->
<!DOCTYPE svg PUBLIC "-//W3C//DTD SVG 1.1//EN" "http://www.w3.org/Graphics/SVG/1.1/DTD/svg11.dtd">
<svg version="1.1" xmlns="http://www.w3.org/2000/svg" xmlns:xlink="http://www.w3.org/1999/xlink" width="20" height="20" viewBox="0 0 20 20">
<path d="M18.334 4.831c-0.614 0.271-1.273 0.456-1.964 0.539 0.706-0.424 1.249-1.094 1.504-1.891-0.661 0.391-1.393 0.676-2.171 0.83-0.624-0.665-1.512-1.080-2.496-1.080-1.889 0-3.42 1.531-3.42 3.42 0 0.269 0.030 0.529 0.089 0.779-2.839-0.144-5.36-1.505-7.046-3.574-0.294 0.506-0.464 1.093-0.464 1.72 0 1.186 0.604 2.232 1.521 2.846-0.56-0.019-1.087-0.171-1.549-0.429-0.001 0.014-0.001 0.029-0.001 0.044 0 1.656 1.179 3.039 2.742 3.354-0.286 0.077-0.589 0.119-0.901 0.119-0.22 0-0.434-0.021-0.644-0.061 0.435 1.359 1.699 2.346 3.194 2.374-1.17 0.918-2.644 1.464-4.246 1.464-0.276 0-0.549-0.016-0.815-0.049 1.514 0.97 3.311 1.536 5.241 1.536 6.29 0 9.729-5.211 9.729-9.729 0-0.149-0.004-0.296-0.010-0.442 0.669-0.481 1.247-1.084 1.706-1.769v0z"></path>
</svg>
