<?xml version="1.0" encoding="utf-8"?>
<!-- Generator: Adobe Illustrator 17.0.0, SVG Export Plug-In . SVG Version: 6.00 Build 0)  -->
<!DOCTYPE svg PUBLIC "-//W3C//DTD SVG 1.1//EN" "http://www.w3.org/Graphics/SVG/1.1/DTD/svg11.dtd">
<svg version="1.1" id="Layer_1" xmlns="http://www.w3.org/2000/svg" xmlns:xlink="http://www.w3.org/1999/xlink" x="0px" y="0px"
	 width="24px" height="24px" viewBox="0 0 24 24" enable-background="new 0 0 24 24" xml:space="preserve">
<g>
	<path d="M12,2C6.478,2,2,6.477,2,12c0,5.523,4.478,10,10,10c5.523,0,10-4.477,10-10C22,6.477,17.523,2,12,2z M12,20.906
		c-4.911,0-8.906-3.995-8.906-8.906S7.089,3.094,12,3.094S20.906,7.089,20.906,12S16.911,20.906,12,20.906z"/>
	<polygon points="13,8.25 11,8.25 11,11 8.25,11 8.25,13 11,13 11,15.75 13,15.75 13,13 15.75,13 15.75,11 13,11 	"/>
</g>
</svg>
