<?xml version="1.0" encoding="utf-8"?>
<!-- Generator: Adobe Illustrator 17.0.0, SVG Export Plug-In . SVG Version: 6.00 Build 0)  -->
<!DOCTYPE svg PUBLIC "-//W3C//DTD SVG 1.1//EN" "http://www.w3.org/Graphics/SVG/1.1/DTD/svg11.dtd">
<svg version="1.1" id="Layer_1" xmlns="http://www.w3.org/2000/svg" xmlns:xlink="http://www.w3.org/1999/xlink" x="0px" y="0px"
	 width="24px" height="24px" viewBox="0 0 24 24" enable-background="new 0 0 24 24" xml:space="preserve">
<g>
	<path fill="#010101" d="M17.497,10.444c0-3.93-1.976-5.69-3.572-6.47C13.916,2.882,13.03,2,11.937,2
		c-1.099,0-1.989,0.89-1.989,1.989c0,0.016,0.002,0.032,0.003,0.048c-1.572,0.81-3.447,2.577-3.447,6.407
		c0,0,0.447,5.82-3.012,5.736v1.726h8.446h0.126h8.447V16.18C17.05,16.264,17.497,10.444,17.497,10.444z"/>
	<g>
		<path fill="#010101" d="M8.77,18.919C8.885,20.64,10.313,22,12.063,22s3.178-1.361,3.292-3.082H8.77z"/>
	</g>
</g>
</svg>
