<?xml version="1.0" encoding="utf-8"?>
<!-- Generator: Adobe Illustrator 17.0.0, SVG Export Plug-In . SVG Version: 6.00 Build 0)  -->
<!DOCTYPE svg PUBLIC "-//W3C//DTD SVG 1.1//EN" "http://www.w3.org/Graphics/SVG/1.1/DTD/svg11.dtd">
<svg version="1.1" id="Layer_1" xmlns="http://www.w3.org/2000/svg" xmlns:xlink="http://www.w3.org/1999/xlink" x="0px" y="0px"
	 width="24px" height="24px" viewBox="0 0 24 24" enable-background="new 0 0 24 24" xml:space="preserve">
<g>
	<path fill="#010101" d="M16.904,7.096c-0.474-0.474-1.242-0.474-1.716,0L12,10.284L8.812,7.096c-0.474-0.474-1.242-0.474-1.716,0
		c-0.474,0.474-0.474,1.243,0,1.716L10.284,12l-3.188,3.188c-0.474,0.474-0.474,1.242,0,1.716c0.237,0.237,0.548,0.356,0.858,0.356
		c0.311,0,0.621-0.119,0.858-0.356L12,13.716l3.188,3.188c0.237,0.237,0.548,0.356,0.858,0.356s0.621-0.119,0.858-0.356
		c0.474-0.474,0.474-1.242,0-1.716L13.716,12l3.188-3.188C17.378,8.338,17.378,7.57,16.904,7.096z"/>
	<path fill="#010101" d="M12,1C5.935,1,1,5.935,1,12c0,6.066,4.935,11,11,11c6.066,0,11-4.934,11-11C23,5.935,18.066,1,12,1z
		 M12,21.23c-5.089,0-9.23-4.141-9.23-9.23c0-5.089,4.14-9.23,9.23-9.23c5.089,0,9.23,4.14,9.23,9.23
		C21.23,17.089,17.089,21.23,12,21.23z"/>
</g>
</svg>
