<svg xmlns="http://www.w3.org/2000/svg" viewBox="0 0 24 24" width="24" height="24">
  <path d="M17,6.2c-1.4,0-2.8,0.5-3.9,1.4c0,0-0.1,0.1-0.1,0.2c0,0.1,0,0.1,0.1,0.2l1,1.2c0,0,0.1,0.1,0.2,0.1
    c0.1,0,0.1,0,0.2-0.1C15.1,8.6,16,8.2,17,8.2c2.2,0,3.9,1.7,3.9,3.8s-1.8,3.8-3.9,3.8c-0.8,0-1.6-0.2-2.2-0.7
    c-0.7-0.4-1.2-1.1-1.5-1.9c-0.1-0.2-0.1-0.4-0.2-0.7c0-0.2,0-0.3,0-0.5v-0.2c0,0,0,0,0-0.1c0-0.3,0-0.6-0.1-0.9
    c-0.3-1.6-1.2-2.9-2.6-3.8c-1-0.6-2.1-1-3.3-1c-3.3,0-6,2.6-6,5.9c0,3.2,2.7,5.8,6,5.8c1.5,0,2.9-0.5,4-1.5c0.1-0.1,0.1-0.2,0-0.3
    L10,14.8c-0.1-0.1-0.2-0.1-0.3,0c-0.7,0.6-1.6,1-2.6,1c-2.2,0-3.9-1.7-3.9-3.8c0-2.1,1.8-3.8,3.9-3.8c0.8,0,1.6,0.2,2.2,0.7
    c0.9,0.6,1.5,1.4,1.7,2.4c0,0.3,0.1,0.5,0.1,0.7c0,0.4,0,0.7,0.1,0.9c0.1,0.4,0.1,0.7,0.3,1c0.4,1.2,1.3,2.2,2.3,2.9
    c1,0.7,2.1,1,3.3,1c3.3,0,6-2.6,6-5.8C23,8.8,20.3,6.2,17,6.2z"/>
</svg>