<?xml version="1.0" encoding="utf-8"?>
<!-- Generator: Adobe Illustrator 17.0.0, SVG Export Plug-In . SVG Version: 6.00 Build 0)  -->
<!DOCTYPE svg PUBLIC "-//W3C//DTD SVG 1.1//EN" "http://www.w3.org/Graphics/SVG/1.1/DTD/svg11.dtd">
<svg version="1.1" id="Layer_1" xmlns="http://www.w3.org/2000/svg" xmlns:xlink="http://www.w3.org/1999/xlink" x="0px" y="0px"
	 width="24px" height="24px" viewBox="0 0 24 24" enable-background="new 0 0 24 24" xml:space="preserve">
<g>
	<path fill="#020202" d="M18.222,4H5.778C4.8,4,4,4.8,4,5.778v12.445C4,19.2,4.8,20,5.778,20h12.445C19.2,20,20,19.2,20,18.222
		V5.778C20,4.8,19.2,4,18.222,4z M16.445,9.334h-8.89V7.555h8.889L16.445,9.334L16.445,9.334z M16.445,12.889h-8.89v-1.778h8.889
		L16.445,12.889L16.445,12.889z M13.778,16.445H7.555v-1.778h6.222V16.445L13.778,16.445z"/>
</g>
</svg>
