<?xml version="1.0" encoding="utf-8"?>
<!-- Generator: Adobe Illustrator 17.0.0, SVG Export Plug-In . SVG Version: 6.00 Build 0)  -->
<!DOCTYPE svg PUBLIC "-//W3C//DTD SVG 1.1//EN" "http://www.w3.org/Graphics/SVG/1.1/DTD/svg11.dtd">
<svg version="1.1" id="Layer_1" xmlns="http://www.w3.org/2000/svg" xmlns:xlink="http://www.w3.org/1999/xlink" x="0px" y="0px"
	 width="24px" height="24px" viewBox="0 0 24 24" enable-background="new 0 0 24 24" xml:space="preserve">
<g>
	<polygon fill="none" points="2.63,6.328 2.63,17.672 8.302,12 	"/>
	<path fill="none" d="M13.728,13.97c-0.46,0.46-1.074,0.714-1.728,0.714s-1.268-0.254-1.728-0.714l-0.818-0.818l-5.672,5.672h16.436
		l-5.672-5.672L13.728,13.97z"/>
	<polygon fill="none" points="21.37,17.672 21.37,6.328 15.698,12 	"/>
	<path fill="#010101" d="M21.036,3.595c0.01,0.002,0.019,0.004,0.028,0.006C21.054,3.599,21.045,3.597,21.036,3.595z"/>
	<path fill="#010101" d="M2.964,20.405c-0.01-0.002-0.019-0.004-0.028-0.006C2.945,20.401,2.955,20.403,2.964,20.405z"/>
	<path fill="#010101" d="M21.425,3.713c0.437,0.193,0.626,0.507,0.696,0.675c0.105,0.253,0.265,0.925-0.512,1.701L21.37,6.328
		v11.344l0.239,0.239c0.777,0.776,0.617,1.448,0.512,1.701c-0.07,0.168-0.259,0.481-0.696,0.675C22.343,19.934,23,19.05,23,18.009
		V5.991C23,4.95,22.343,4.065,21.425,3.713z"/>
	<path fill="#010101" d="M21.064,20.399c-0.01,0.002-0.019,0.004-0.028,0.006C21.045,20.403,21.055,20.401,21.064,20.399z"/>
	<path fill="#010101" d="M2.936,3.601c0.009-0.002,0.018-0.004,0.028-0.006C2.955,3.597,2.946,3.599,2.936,3.601z"/>
	<path fill="#010101" d="M1.879,19.612c-0.105-0.253-0.265-0.925,0.512-1.701l0.239-0.239V6.328L2.391,6.089
		C1.614,5.314,1.774,4.641,1.879,4.388c0.07-0.168,0.259-0.481,0.696-0.675C1.657,4.065,1,4.95,1,5.991v12.019
		c0,1.041,0.656,1.925,1.575,2.277C2.138,20.093,1.949,19.78,1.879,19.612z"/>
	<path fill="#010101" d="M20.556,3.546c0.164,0,0.325,0.017,0.48,0.049C20.892,3.567,20.737,3.546,20.556,3.546z"/>
	<path fill="#010101" d="M21.064,3.601c0.125,0.027,0.244,0.067,0.361,0.112C21.32,3.667,21.199,3.63,21.064,3.601z"/>
	<path fill="#010101" d="M9.454,10.848L3.782,5.176H3.444c-0.45,0-0.815,0.365-0.815,0.815v0.337L8.302,12L9.454,10.848z"/>
	<path fill="#010101" d="M2.575,3.713c0.117-0.045,0.236-0.086,0.361-0.112C2.8,3.63,2.68,3.667,2.575,3.713z"/>
	<path fill="#010101" d="M2.964,3.595C3.12,3.564,3.28,3.546,3.444,3.546C3.263,3.546,3.108,3.567,2.964,3.595z"/>
	<path fill="#010101" d="M20.556,5.176h-0.337l-5.672,5.672L15.698,12l5.672-5.672V5.991C21.37,5.541,21.005,5.176,20.556,5.176z"/>
	<path fill="#010101" d="M12.576,12.818c-0.306,0.304-0.847,0.304-1.152,0L10.606,12l-1.152,1.152l0.818,0.818
		c0.46,0.46,1.074,0.714,1.728,0.714s1.268-0.254,1.728-0.714l0.818-0.818L13.394,12L12.576,12.818z"/>
	<path fill="#010101" d="M1.879,4.388C1.774,4.641,1.614,5.314,2.391,6.089L2.63,6.328V5.991c0-0.45,0.365-0.815,0.815-0.815h0.337
		h16.436h0.337c0.45,0,0.815,0.365,0.815,0.815v0.337l0.239-0.239c0.777-0.776,0.617-1.448,0.512-1.701
		c-0.07-0.168-0.259-0.481-0.696-0.675c-0.117-0.045-0.236-0.086-0.361-0.112c-0.009-0.002-0.018-0.004-0.028-0.006
		c-0.155-0.031-0.316-0.049-0.48-0.049H3.444c-0.164,0-0.325,0.017-0.48,0.049c-0.01,0.002-0.019,0.004-0.028,0.006
		C2.811,3.628,2.692,3.669,2.575,3.713C2.138,3.907,1.949,4.22,1.879,4.388z"/>
	<path fill="#010101" d="M21.425,20.287c-0.117,0.045-0.236,0.086-0.361,0.112C21.2,20.37,21.32,20.333,21.425,20.287z"/>
	<path fill="#010101" d="M14.546,13.152l5.672,5.672h0.337c0.45,0,0.815-0.365,0.815-0.815v-0.337L15.698,12L14.546,13.152z"/>
	<path fill="#010101" d="M3.444,20.454c-0.164,0-0.325-0.017-0.48-0.049C3.108,20.433,3.263,20.454,3.444,20.454z"/>
	<path fill="#010101" d="M21.036,20.405c-0.155,0.031-0.316,0.049-0.48,0.049C20.737,20.454,20.892,20.433,21.036,20.405z"/>
	<path fill="#010101" d="M2.936,20.399c-0.125-0.027-0.244-0.067-0.361-0.112C2.679,20.333,2.8,20.37,2.936,20.399z"/>
	<path fill="#010101" d="M8.302,12L2.63,17.672v0.337c0,0.45,0.365,0.815,0.815,0.815h0.337l5.672-5.672L8.302,12z"/>
	<path fill="#010101" d="M22.121,19.612c0.105-0.253,0.265-0.925-0.512-1.701l-0.239-0.239v0.337c0,0.45-0.365,0.815-0.815,0.815
		h-0.337H3.782H3.444c-0.45,0-0.815-0.365-0.815-0.815v-0.337l-0.239,0.239c-0.777,0.776-0.617,1.448-0.512,1.701
		c0.07,0.168,0.259,0.481,0.696,0.675c0.117,0.045,0.236,0.086,0.361,0.112c0.01,0.002,0.019,0.004,0.028,0.006
		c0.155,0.031,0.316,0.049,0.48,0.049h17.111c0.164,0,0.325-0.017,0.48-0.049c0.01-0.002,0.019-0.004,0.028-0.006
		c0.125-0.027,0.244-0.067,0.361-0.112C21.862,20.093,22.051,19.78,22.121,19.612z"/>
	
		<rect x="13.732" y="11.185" transform="matrix(-0.7071 0.7071 -0.7071 -0.7071 33.3174 10.1995)" fill="#010101" width="1.629" height="1.629"/>
	
		<rect x="8.639" y="11.185" transform="matrix(0.7071 -0.7071 0.7071 0.7071 -5.7164 10.1995)" fill="#010101" width="1.629" height="1.629"/>
</g>
</svg>
