<svg xmlns="http://www.w3.org/2000/svg" viewBox="0 0 24 24" width="24" height="24">
<path d="M18.9,14.3h-2.7l0.7-4.7h2c0.6,0,1.1-0.5,1.1-1.1s-0.5-1.1-1.1-1.1h-1.6l0.4-2.2c0.1-0.6-0.3-1.2-0.9-1.2
	C16.1,4,15.6,4.3,15.5,5l-0.4,2.5h-4.7l0.4-2.2c0.1-0.7-0.4-1.2-0.9-1.4C9.2,3.9,8.7,4.3,8.6,4.9L8.1,7.4H5.1C4.5,7.4,4,7.9,4,8.6
	s0.5,1.1,1.1,1.1h2.7l-0.7,4.7h-2c-0.6,0-1.1,0.5-1.1,1.1s0.5,1.1,1.1,1.1h1.6l-0.4,2.2c-0.1,0.6,0.3,1.2,0.9,1.2c0.1,0,0.1,0,0.1,0
	c0.5,0,1-0.4,1.1-0.9l0.4-2.5h4.7l-0.4,2.2c-0.1,0.6,0.3,1.2,0.9,1.2c0.1,0,0.1,0,0.1,0c0.5,0,1-0.4,1.1-0.9l0.4-2.5h3.1
	c0.6,0,1.1-0.5,1.1-1.1C20,14.8,19.5,14.3,18.9,14.3z M9.3,14.3L10,9.7h4.7L14,14.3C14,14.3,9.3,14.3,9.3,14.3z"/>
</svg>
