<?xml version="1.0" encoding="utf-8"?>
<!-- Generator: Adobe Illustrator 17.0.0, SVG Export Plug-In . SVG Version: 6.00 Build 0)  -->
<!DOCTYPE svg PUBLIC "-//W3C//DTD SVG 1.1//EN" "http://www.w3.org/Graphics/SVG/1.1/DTD/svg11.dtd">
<svg version="1.1" id="Layer_1" xmlns="http://www.w3.org/2000/svg" xmlns:xlink="http://www.w3.org/1999/xlink" x="0px" y="0px"
	 width="24px" height="24px" viewBox="0 0 24 24" enable-background="new 0 0 24 24" xml:space="preserve">
<g>
	<path fill="#010101" d="M12,23C5.935,23,1,18.066,1,12C1,5.935,5.935,1,12,1c6.066,0,11,4.935,11,11C23,18.066,18.066,23,12,23z
		 M12,2.77c-5.089,0-9.23,4.14-9.23,9.23c0,5.089,4.14,9.23,9.23,9.23c5.089,0,9.23-4.141,9.23-9.23
		C21.23,6.911,17.089,2.77,12,2.77z"/>
	<g>
		<path fill="#010101" d="M14.1,15.966l-0.141,0.578c-0.424,0.167-0.762,0.294-1.015,0.382c-0.253,0.088-0.546,0.132-0.88,0.132
			c-0.514,0-0.913-0.125-1.198-0.376c-0.285-0.25-0.427-0.568-0.427-0.954c0-0.15,0.011-0.303,0.032-0.459
			c0.021-0.156,0.056-0.333,0.103-0.53l0.53-1.875c0.047-0.18,0.087-0.35,0.119-0.511s0.048-0.307,0.048-0.44
			c0-0.24-0.05-0.407-0.148-0.501c-0.099-0.094-0.287-0.141-0.567-0.141c-0.138,0-0.278,0.021-0.422,0.064
			c-0.144,0.043-0.268,0.083-0.37,0.122l0.141-0.578c0.347-0.141,0.68-0.262,0.997-0.363c0.317-0.101,0.618-0.151,0.9-0.151
			c0.511,0,0.903,0.123,1.18,0.369c0.276,0.246,0.415,0.566,0.415,0.96c0,0.081-0.01,0.225-0.029,0.43
			c-0.019,0.206-0.055,0.394-0.106,0.565l-0.528,1.869c-0.043,0.15-0.082,0.321-0.116,0.514c-0.034,0.193-0.051,0.338-0.051,0.437
			c0,0.248,0.056,0.417,0.166,0.507c0.111,0.09,0.304,0.135,0.577,0.135c0.128,0,0.273-0.022,0.436-0.067
			C13.91,16.04,14.027,16,14.1,15.966z M14.235,8.124c0,0.325-0.123,0.603-0.369,0.832c-0.246,0.229-0.543,0.344-0.889,0.344
			s-0.644-0.115-0.893-0.344s-0.372-0.506-0.372-0.832c0-0.325,0.124-0.604,0.372-0.835s0.546-0.347,0.893-0.347
			s0.643,0.116,0.889,0.347C14.112,7.521,14.235,7.799,14.235,8.124z"/>
	</g>
</g>
</svg>
