<?xml version="1.0" encoding="utf-8"?>
<!-- Generator: Adobe Illustrator 17.0.0, SVG Export Plug-In . SVG Version: 6.00 Build 0)  -->
<!DOCTYPE svg PUBLIC "-//W3C//DTD SVG 1.1//EN" "http://www.w3.org/Graphics/SVG/1.1/DTD/svg11.dtd">
<svg version="1.1" id="Layer_1" xmlns="http://www.w3.org/2000/svg" xmlns:xlink="http://www.w3.org/1999/xlink" x="0px" y="0px"
	 width="24px" height="24px" viewBox="0 0 24 24" enable-background="new 0 0 24 24" xml:space="preserve">
<g id="instagram">
	<path fill="#030303" d="M4.567,2h14.866C20.845,2,22,3.155,22,4.567v14.866C22,20.845,20.845,22,19.433,22H4.567
		C3.155,22,2,20.845,2,19.432V4.567C2,3.155,3.155,2,4.567,2L4.567,2z M16.569,4.222c-0.495,0-0.9,0.405-0.9,0.9v2.155
		c0,0.495,0.405,0.9,0.9,0.9h2.26c0.495,0,0.9-0.405,0.9-0.9V5.122c0-0.495-0.405-0.9-0.9-0.9
		C18.828,4.222,16.569,4.222,16.569,4.222z M19.74,10.457h-1.76c0.166,0.544,0.256,1.12,0.256,1.715
		c0,3.326-2.785,6.025-6.216,6.025S5.803,15.5,5.803,12.173c0-0.595,0.09-1.173,0.255-1.715H4.223v8.448
		c0,0.437,0.357,0.795,0.795,0.795h13.927c0.437,0,0.795-0.357,0.795-0.795L19.74,10.457L19.74,10.457z M12.019,8.065
		c-2.219,0-4.016,1.743-4.016,3.893s1.798,3.893,4.016,3.893s4.015-1.743,4.015-3.893C16.036,9.807,14.237,8.065,12.019,8.065z"/>
</g>
</svg>
