<?xml version="1.0" encoding="utf-8"?>
<!-- Generator: Adobe Illustrator 17.0.0, SVG Export Plug-In . SVG Version: 6.00 Build 0)  -->
<!DOCTYPE svg PUBLIC "-//W3C//DTD SVG 1.1//EN" "http://www.w3.org/Graphics/SVG/1.1/DTD/svg11.dtd">
<svg version="1.1" id="Layer_1" xmlns="http://www.w3.org/2000/svg" xmlns:xlink="http://www.w3.org/1999/xlink" x="0px" y="0px"
	 width="24px" height="24px" viewBox="0 0 24 24" enable-background="new 0 0 24 24" xml:space="preserve">
<g id="linkedin">
	<path fill="#030303" d="M20.518,2H3.475C2.661,2,2,2.646,2,3.441v17.115C2,21.354,2.661,22,3.475,22h17.043
		C21.334,22,22,21.354,22,20.556V3.441C22,2.646,21.335,2,20.518,2z M7.931,19.044H4.964V9.498h2.967V19.044z M6.448,8.194
		c-0.951,0-1.719-0.771-1.719-1.721c0-0.949,0.768-1.719,1.719-1.719c0.948,0,1.719,0.771,1.719,1.719
		C8.166,7.423,7.396,8.194,6.448,8.194z M19.042,19.044h-2.964v-4.642c0-1.107-0.022-2.532-1.542-2.532
		c-1.544,0-1.779,1.205-1.779,2.451v4.721H9.792V9.498h2.845v1.304h0.041c0.396-0.75,1.364-1.541,2.806-1.541
		c3.002,0,3.555,1.976,3.555,4.546L19.042,19.044L19.042,19.044z"/>
</g>
</svg>
