<?xml version="1.0" encoding="utf-8"?>
<!-- Generator: Adobe Illustrator 17.0.0, SVG Export Plug-In . SVG Version: 6.00 Build 0)  -->
<!DOCTYPE svg PUBLIC "-//W3C//DTD SVG 1.1//EN" "http://www.w3.org/Graphics/SVG/1.1/DTD/svg11.dtd">
<svg version="1.1" id="Layer_1" xmlns="http://www.w3.org/2000/svg" xmlns:xlink="http://www.w3.org/1999/xlink" x="0px" y="0px"
	 width="24px" height="24px" viewBox="0 0 24 24" enable-background="new 0 0 24 24" xml:space="preserve">
<g>
	<path d="M21.333,0H7.111c-1.47,0-2.667,1.196-2.667,2.667v1.778H2.667C1.196,4.444,0,5.641,0,7.111v14.222
		C0,22.804,1.196,24,2.667,24h14.222c1.47,0,2.667-1.196,2.667-2.667v-1.778h1.778c1.47,0,2.667-1.196,2.667-2.667V2.667
		C24,1.196,22.804,0,21.333,0z M17.778,21.333c0,0.49-0.398,0.889-0.889,0.889H2.667c-0.49,0-0.889-0.398-0.889-0.889V7.111
		c0-0.49,0.399-0.889,0.889-0.889h1.778v10.667c0,1.47,1.196,2.667,2.667,2.667h10.667V21.333z M17.778,17.778H7.111
		c-0.49,0-0.889-0.398-0.889-0.889V6.222h10.667c0.49,0,0.889,0.399,0.889,0.889V17.778z M22.222,16.889
		c0,0.49-0.398,0.889-0.889,0.889h-1.778V7.111c0-1.47-1.196-2.667-2.667-2.667H6.222V2.667c0-0.49,0.399-0.889,0.889-0.889h14.222
		c0.49,0,0.889,0.399,0.889,0.889V16.889z"/>
	<polygon points="10.333,14.778 14.038,11.815 10.333,9.222 	"/>
</g>
</svg>
