<?xml version="1.0" encoding="utf-8"?>
<!-- Generator: Adobe Illustrator 17.0.0, SVG Export Plug-In . SVG Version: 6.00 Build 0)  -->
<!DOCTYPE svg PUBLIC "-//W3C//DTD SVG 1.1//EN" "http://www.w3.org/Graphics/SVG/1.1/DTD/svg11.dtd">
<svg version="1.1" id="Layer_1" xmlns="http://www.w3.org/2000/svg" xmlns:xlink="http://www.w3.org/1999/xlink" x="0px" y="0px"
	 width="24px" height="24px" viewBox="0 0 24 24" enable-background="new 0 0 24 24" xml:space="preserve">
<g>
	<path d="M5.526,2.32c0.238,0,0.44,0.202,0.44,0.44v2.766c0,0.238-0.202,0.44-0.44,0.44H2.76
		c-0.238,0-0.44-0.202-0.44-0.44V2.76c0-0.238,0.202-0.44,0.44-0.44L5.526,2.32 M5.526,1H2.76C1.792,1,1,1.792,1,2.76v2.766
		c0,0.968,0.792,1.76,1.76,1.76h2.766c0.968,0,1.76-0.792,1.76-1.76V2.76C7.286,1.792,6.494,1,5.526,1L5.526,1z"/>
	<path d="M13.383,2.32c0.238,0,0.44,0.202,0.44,0.44v2.766c0,0.238-0.202,0.44-0.44,0.44h-2.766
		c-0.238,0-0.44-0.202-0.44-0.44V2.76c0-0.238,0.202-0.44,0.44-0.44L13.383,2.32 M13.383,1h-2.766c-0.968,0-1.76,0.792-1.76,1.76
		v2.766c0,0.968,0.792,1.76,1.76,1.76h2.766c0.968,0,1.76-0.792,1.76-1.76V2.76C15.143,1.792,14.351,1,13.383,1L13.383,1z"/>
	<path d="M21.24,2.32c0.238,0,0.44,0.202,0.44,0.44v2.766c0,0.238-0.202,0.44-0.44,0.44h-2.766
		c-0.238,0-0.44-0.202-0.44-0.44V2.76c0-0.238,0.202-0.44,0.44-0.44L21.24,2.32 M21.24,1h-2.766c-0.968,0-1.76,0.792-1.76,1.76
		v2.766c0,0.968,0.792,1.76,1.76,1.76h2.766c0.968,0,1.76-0.792,1.76-1.76V2.76C23,1.792,22.208,1,21.24,1L21.24,1z"/>
	<path d="M21.24,10.177c0.238,0,0.44,0.202,0.44,0.44v2.766c0,0.238-0.202,0.44-0.44,0.44h-2.766
		c-0.238,0-0.44-0.202-0.44-0.44v-2.766c0-0.238,0.202-0.44,0.44-0.44H21.24 M21.24,8.857h-2.766c-0.968,0-1.76,0.792-1.76,1.76
		v2.766c0,0.968,0.792,1.76,1.76,1.76h2.766c0.968,0,1.76-0.792,1.76-1.76v-2.766C23,9.649,22.208,8.857,21.24,8.857L21.24,8.857z"
		/>
	<path d="M5.526,10.177c0.238,0,0.44,0.202,0.44,0.44v2.766c0,0.238-0.202,0.44-0.44,0.44H2.76
		c-0.238,0-0.44-0.202-0.44-0.44v-2.766c0-0.238,0.202-0.44,0.44-0.44H5.526 M5.526,8.857H2.76C1.792,8.857,1,9.649,1,10.617v2.766
		c0,0.968,0.792,1.76,1.76,1.76h2.766c0.968,0,1.76-0.792,1.76-1.76v-2.766C7.286,9.649,6.494,8.857,5.526,8.857L5.526,8.857z"/>
	<path d="M21.24,18.034c0.238,0,0.44,0.202,0.44,0.44v2.766c0,0.238-0.202,0.44-0.44,0.44h-2.766
		c-0.238,0-0.44-0.202-0.44-0.44v-2.766c0-0.238,0.202-0.44,0.44-0.44H21.24 M21.24,16.714h-2.766c-0.968,0-1.76,0.792-1.76,1.76
		v2.766c0,0.968,0.792,1.76,1.76,1.76h2.766c0.968,0,1.76-0.792,1.76-1.76v-2.766C23,17.506,22.208,16.714,21.24,16.714
		L21.24,16.714z"/>
	<path d="M13.383,18.034c0.238,0,0.44,0.202,0.44,0.44v2.766c0,0.238-0.202,0.44-0.44,0.44h-2.766
		c-0.238,0-0.44-0.202-0.44-0.44v-2.766c0-0.238,0.202-0.44,0.44-0.44H13.383 M13.383,16.714h-2.766c-0.968,0-1.76,0.792-1.76,1.76
		v2.766c0,0.968,0.792,1.76,1.76,1.76h2.766c0.968,0,1.76-0.792,1.76-1.76v-2.766C15.143,17.506,14.351,16.714,13.383,16.714
		L13.383,16.714z"/>
	<path d="M5.526,18.034c0.238,0,0.44,0.202,0.44,0.44v2.766c0,0.238-0.202,0.44-0.44,0.44H2.76
		c-0.238,0-0.44-0.202-0.44-0.44v-2.766c0-0.238,0.202-0.44,0.44-0.44H5.526 M5.526,16.714H2.76c-0.968,0-1.76,0.792-1.76,1.76
		v2.766C1,22.208,1.792,23,2.76,23h2.766c0.968,0,1.76-0.792,1.76-1.76v-2.766C7.286,17.506,6.494,16.714,5.526,16.714L5.526,16.714
		z"/>
	<polygon points="10.167,14.75 13.833,11.817 10.167,9.25 	"/>
</g>
</svg>
