<?xml version="1.0" encoding="utf-8"?>
<!-- Generator: Adobe Illustrator 17.0.0, SVG Export Plug-In . SVG Version: 6.00 Build 0)  -->
<!DOCTYPE svg PUBLIC "-//W3C//DTD SVG 1.1//EN" "http://www.w3.org/Graphics/SVG/1.1/DTD/svg11.dtd">
<svg version="1.1" id="Layer_1" xmlns="http://www.w3.org/2000/svg" xmlns:xlink="http://www.w3.org/1999/xlink" x="0px" y="0px"
	 width="24px" height="24px" viewBox="0 0 24 24" enable-background="new 0 0 24 24" xml:space="preserve">
<g>
	<path d="M19.875,22.5H4.125c-1.448,0-2.625-1.177-2.625-2.625V4.125C1.5,2.677,2.677,1.5,4.125,1.5h15.75
		c1.448,0,2.625,1.177,2.625,2.625v15.75C22.5,21.323,21.323,22.5,19.875,22.5z M4.125,3.25c-0.482,0-0.875,0.393-0.875,0.875v15.75
		c0,0.483,0.393,0.875,0.875,0.875h15.75c0.483,0,0.875-0.392,0.875-0.875V4.125c0-0.482-0.392-0.875-0.875-0.875H4.125z"/>
	<polyline points="7.188,13.812 14.687,6.312 17.688,9.313 10.188,16.812 		"/>
	<polyline points="9.313,17.688 6.312,17.688 6.312,14.687 		"/>
</g>
</svg>
