<?xml version="1.0" encoding="utf-8"?>
<!-- Generator: Adobe Illustrator 17.0.0, SVG Export Plug-In . SVG Version: 6.00 Build 0)  -->
<!DOCTYPE svg PUBLIC "-//W3C//DTD SVG 1.1//EN" "http://www.w3.org/Graphics/SVG/1.1/DTD/svg11.dtd">
<svg version="1.1" id="Layer_1" xmlns="http://www.w3.org/2000/svg" xmlns:xlink="http://www.w3.org/1999/xlink" x="0px" y="0px"
	 width="24px" height="24px" viewBox="0 0 24 24" enable-background="new 0 0 24 24" xml:space="preserve">
<g>
	<path fill="#010101" d="M18,8c0-3.307-2.693-6-6-6S6,4.693,6,8v2H4.667v4.667C4.667,18.72,7.947,22,12,22s7.333-3.28,7.333-7.333
		V10H18V8z M7.333,8c0-2.56,2.107-4.667,4.667-4.667S16.667,5.44,16.667,8v2h-1.333V8c0-1.84-1.493-3.333-3.333-3.333
		S8.667,6.16,8.667,8v2H7.333V8z M14,8v2h-4V8c0-1.093,0.907-2,2-2S14,6.907,14,8z M18,14.667c0,3.307-2.693,6-6,6s-6-2.693-6-6
		v-3.333h12V14.667z"/>
	<path fill="#010101" d="M11.333,17.227c0,0.027,0,0.08,0,0.107V18c0,0.373,0.293,0.667,0.667,0.667s0.667-0.293,0.667-0.667v-0.667
		c0-0.027,0-0.08,0-0.107C13.44,16.96,14,16.213,14,15.333c0-1.093-0.907-2-2-2s-2,0.907-2,2C10,16.213,10.56,16.96,11.333,17.227z
		 M12,14.667c0.373,0,0.667,0.293,0.667,0.667C12.667,15.707,12.373,16,12,16s-0.667-0.293-0.667-0.667
		C11.333,14.96,11.627,14.667,12,14.667z"/>
</g>
</svg>
