<?xml version="1.0" encoding="utf-8"?>
<!-- Generator: Adobe Illustrator 17.0.0, SVG Export Plug-In . SVG Version: 6.00 Build 0)  -->
<!DOCTYPE svg PUBLIC "-//W3C//DTD SVG 1.1//EN" "http://www.w3.org/Graphics/SVG/1.1/DTD/svg11.dtd">
<svg version="1.1" id="Layer_1" xmlns="http://www.w3.org/2000/svg" xmlns:xlink="http://www.w3.org/1999/xlink" x="0px" y="0px"
	 width="24px" height="24px" viewBox="0 0 24 24" enable-background="new 0 0 24 24" xml:space="preserve">
<g>
	<path fill="#010101" d="M20.5,2h-17C2.672,2,2,2.672,2,3.5v17C2,21.328,2.672,22,3.5,22h17c0.828,0,1.5-0.672,1.5-1.5v-17
		C22,2.672,21.328,2,20.5,2z M20.25,20.25H3.75V3.75h16.5V20.25z"/>
	<circle fill="#010101" cx="15" cy="9.25" r="1.4"/>
	<path fill="#010101" d="M6,18.65h12c0.221,0,0.4-0.18,0.4-0.4v-4c0-0.139-0.072-0.268-0.19-0.34
		c-0.117-0.073-0.265-0.079-0.389-0.018L14,15.803l-7.821-3.911C6.055,11.83,5.908,11.837,5.79,11.91
		C5.672,11.982,5.6,12.111,5.6,12.25v6C5.6,18.471,5.779,18.65,6,18.65z"/>
</g>
</svg>
