<?xml version="1.0" encoding="utf-8"?>
<!-- Generator: Adobe Illustrator 17.0.0, SVG Export Plug-In . SVG Version: 6.00 Build 0)  -->
<!DOCTYPE svg PUBLIC "-//W3C//DTD SVG 1.1//EN" "http://www.w3.org/Graphics/SVG/1.1/DTD/svg11.dtd">
<svg version="1.1" id="Layer_1" xmlns="http://www.w3.org/2000/svg" xmlns:xlink="http://www.w3.org/1999/xlink" x="0px" y="0px"
	 width="24px" height="24px" viewBox="0 0 24 24" enable-background="new 0 0 24 24" xml:space="preserve">
<path fill="#010101" d="M14.353,10.235H8.025l2.87-2.87c0.689-0.689,0.689-1.807,0-2.495c-0.689-0.689-1.806-0.689-2.495,0
	l-5.88,5.88c-0.165,0.164-0.296,0.361-0.386,0.579c-0.004,0.009-0.005,0.018-0.008,0.026C2.047,11.556,2,11.772,2,12
	s0.047,0.444,0.125,0.644c0.003,0.009,0.005,0.018,0.008,0.026c0.09,0.218,0.221,0.415,0.386,0.579l5.88,5.88
	c0.345,0.345,0.796,0.517,1.248,0.517c0.452,0,0.903-0.172,1.248-0.517c0.689-0.689,0.689-1.806,0-2.495l-2.87-2.87h6.328
	c3.865,0,4.108,3.44,4.118,4.118c0,0.974,0.79,1.765,1.765,1.765S22,18.857,22,17.882C22,14.808,19.963,10.235,14.353,10.235z"/>
</svg>
