<?xml version="1.0" encoding="utf-8"?>
<!-- Generator: Adobe Illustrator 17.0.0, SVG Export Plug-In . SVG Version: 6.00 Build 0)  -->
<!DOCTYPE svg PUBLIC "-//W3C//DTD SVG 1.1//EN" "http://www.w3.org/Graphics/SVG/1.1/DTD/svg11.dtd">
<svg version="1.1" id="Layer_1" xmlns="http://www.w3.org/2000/svg" xmlns:xlink="http://www.w3.org/1999/xlink" x="0px" y="0px"
	 width="24px" height="24px" viewBox="0 0 24 24" enable-background="new 0 0 24 24" xml:space="preserve">
<path d="M20.912,13.216c0-0.362,0.121-0.724,0.121-1.206s0-0.844-0.121-1.206l2.533-2.05c0.241-0.241,0.241-0.482,0.121-0.724
	l-2.412-4.221c-0.121-0.121-0.362-0.241-0.724-0.121l-3.015,1.206c-0.603-0.482-1.327-0.844-2.05-1.206l-0.482-3.136
	c0.121-0.362-0.241-0.603-0.482-0.603H9.575c-0.241,0-0.603,0.241-0.603,0.482L8.489,3.689C7.766,3.93,7.163,4.412,6.439,4.895
	L3.545,3.689c-0.362-0.121-0.603,0-0.844,0.241L0.288,8.151c-0.121,0.121,0,0.482,0.241,0.724l2.533,1.93
	c0,0.362-0.121,0.724-0.121,1.206s0,0.844,0.121,1.206l-2.533,2.05c-0.241,0.241-0.241,0.482-0.121,0.724l2.412,4.221
	c0.121,0.121,0.362,0.241,0.724,0.121l3.015-1.206c0.603,0.482,1.327,0.844,2.05,1.206l0.482,3.136c0,0.241,0.241,0.482,0.603,0.482
	h4.824c0.241,0,0.603-0.241,0.603-0.482l0.482-3.136c0.724-0.362,1.447-0.724,2.05-1.206l3.015,1.206
	c0.241,0.121,0.603,0,0.724-0.241l2.412-4.221c0.121-0.241,0.121-0.603-0.121-0.724L20.912,13.216z M11.987,16.231
	c-2.291,0-4.221-1.93-4.221-4.221s1.93-4.221,4.221-4.221s4.221,1.93,4.221,4.221S14.278,16.231,11.987,16.231z"/>
</svg>
