<?xml version="1.0" encoding="utf-8"?>
<!-- Generator: Adobe Illustrator 17.0.0, SVG Export Plug-In . SVG Version: 6.00 Build 0)  -->
<!DOCTYPE svg PUBLIC "-//W3C//DTD SVG 1.1//EN" "http://www.w3.org/Graphics/SVG/1.1/DTD/svg11.dtd">
<svg version="1.1" id="Layer_1" xmlns="http://www.w3.org/2000/svg" xmlns:xlink="http://www.w3.org/1999/xlink" x="0px" y="0px"
	 width="34px" height="24px" viewBox="0 0 34 24" enable-background="new 0 0 34 24" xml:space="preserve">
<g>
	<g>
		<path fill="#010101" d="M32,13H16.444c-0.552,0-1-0.448-1-1s0.448-1,1-1H32c0.553,0,1,0.448,1,1S32.553,13,32,13z"/>
		<path fill="#010101" d="M27,18c-0.256,0-0.512-0.098-0.707-0.293c-0.391-0.391-0.391-1.023,0-1.414L30.586,12l-4.293-4.293
			c-0.391-0.391-0.391-1.023,0-1.414s1.023-0.391,1.414,0l5,5c0.391,0.391,0.391,1.023,0,1.414l-5,5C27.512,17.902,27.256,18,27,18z
			"/>
	</g>
	<path fill="#010101" d="M20,23H4c-1.654,0-3-1.346-3-3V4c0-1.654,1.346-3,3-3h16c1.654,0,3,1.346,3,3v3c0,0.552-0.447,1-1,1
		s-1-0.448-1-1V4c0-0.551-0.448-1-1-1H4C3.449,3,3,3.449,3,4v16c0,0.552,0.449,1,1,1h16c0.552,0,1-0.448,1-1v-3c0-0.553,0.447-1,1-1
		s1,0.447,1,1v3C23,21.654,21.654,23,20,23z"/>
</g>
</svg>
