<?xml version="1.0" encoding="utf-8"?>
<!-- Generator: Adobe Illustrator 17.0.0, SVG Export Plug-In . SVG Version: 6.00 Build 0)  -->
<!DOCTYPE svg PUBLIC "-//W3C//DTD SVG 1.1//EN" "http://www.w3.org/Graphics/SVG/1.1/DTD/svg11.dtd">
<svg version="1.1" id="Layer_1" xmlns="http://www.w3.org/2000/svg" xmlns:xlink="http://www.w3.org/1999/xlink" x="0px" y="0px"
	 width="24px" height="24px" viewBox="0 0 24 24" enable-background="new 0 0 24 24" xml:space="preserve">
<g>
	<path d="M20.228,4.932c0.091-0.217,0.091-0.461,0-0.679c-0.045-0.109-0.11-0.208-0.193-0.29L16.332,0.26
		c-0.347-0.347-0.91-0.347-1.257,0c-0.347,0.347-0.347,0.91,0,1.257l2.186,2.186H4.592c-0.491,0-0.889,0.398-0.889,0.889V12
		c0,0.491,0.398,0.889,0.889,0.889S5.481,12.491,5.481,12V5.482h11.78l-2.185,2.187c-0.347,0.347-0.347,0.91,0,1.257
		c0.173,0.173,0.401,0.26,0.628,0.26c0.227,0,0.455-0.087,0.628-0.26l3.703-3.703C20.117,5.14,20.182,5.041,20.228,4.932z"/>
	<path d="M19.408,11.111c-0.491,0-0.889,0.398-0.889,0.889v6.518H6.739l2.186-2.186c0.347-0.347,0.347-0.91,0-1.257
		c-0.347-0.347-0.91-0.347-1.257,0l-3.703,3.702c-0.082,0.081-0.147,0.179-0.192,0.287c-0.045,0.107-0.069,0.223-0.069,0.341
		c0,0.119,0.024,0.235,0.069,0.341c0.045,0.108,0.11,0.205,0.192,0.287l3.703,3.703C7.841,23.913,8.069,24,8.296,24
		c0.227,0,0.455-0.087,0.628-0.26c0.347-0.347,0.347-0.91,0-1.257l-2.187-2.187h12.669c0.491,0,0.889-0.398,0.889-0.889V12
		C20.297,11.509,19.898,11.111,19.408,11.111z"/>
</g>
</svg>
