<?xml version="1.0" encoding="utf-8"?>
<!-- Generator: Adobe Illustrator 17.0.0, SVG Export Plug-In . SVG Version: 6.00 Build 0)  -->
<!DOCTYPE svg PUBLIC "-//W3C//DTD SVG 1.1//EN" "http://www.w3.org/Graphics/SVG/1.1/DTD/svg11.dtd">
<svg version="1.1" id="Layer_1" xmlns="http://www.w3.org/2000/svg" xmlns:xlink="http://www.w3.org/1999/xlink" x="0px" y="0px"
	 width="24px" height="24px" viewBox="0 0 24 24" enable-background="new 0 0 24 24" xml:space="preserve">
<g id="tumblr">
	<path fill="#020202" d="M13.251,10.75v4.574c0,1.161-0.015,1.829,0.108,2.158c0.122,0.327,0.428,0.667,0.762,0.863
		c0.443,0.266,0.948,0.398,1.517,0.398c1.013,0,1.611-0.134,2.612-0.792v3.007c-0.854,0.402-1.599,0.637-2.292,0.799
		C15.265,21.919,14.516,22,13.711,22c-0.914,0-1.454-0.115-2.157-0.345c-0.703-0.232-1.302-0.562-1.797-0.987
		c-0.497-0.428-0.84-0.883-1.033-1.364c-0.192-0.482-0.287-1.18-0.287-2.094v-7.013H5.753V7.364
		c0.785-0.255,1.663-0.621,2.223-1.097C8.537,5.79,8.987,5.218,9.325,4.55C9.665,3.883,9.899,3.032,10.026,2h3.224v5h5v3.75H13.251
		L13.251,10.75z"/>
</g>
</svg>
