<?xml version="1.0" encoding="utf-8"?>
<!-- Generator: Adobe Illustrator 17.0.0, SVG Export Plug-In . SVG Version: 6.00 Build 0)  -->
<!DOCTYPE svg PUBLIC "-//W3C//DTD SVG 1.1//EN" "http://www.w3.org/Graphics/SVG/1.1/DTD/svg11.dtd">
<svg version="1.1" id="Layer_1" xmlns="http://www.w3.org/2000/svg" xmlns:xlink="http://www.w3.org/1999/xlink" x="0px" y="0px"
	 width="24px" height="24px" viewBox="0 0 24 24" enable-background="new 0 0 24 24" xml:space="preserve">
<g>
	<circle fill="#010101" cx="12" cy="10.651" r="2.697"/>
	<path fill="#010101" d="M12,13.349c-2.98,0-5.395,1.208-5.395,2.697h10.79C17.395,14.556,14.979,13.349,12,13.349z"/>
	<path fill="#010101" d="M12,1C5.935,1,1,5.935,1,12c0,6.066,4.935,11,11,11c6.066,0,11-4.934,11-11C23,5.935,18.066,1,12,1z
		 M12,21.23c-5.089,0-9.23-4.141-9.23-9.23c0-5.089,4.14-9.23,9.23-9.23c5.089,0,9.23,4.14,9.23,9.23
		C21.23,17.089,17.089,21.23,12,21.23z"/>
</g>
</svg>
