<?xml version="1.0" encoding="utf-8"?>
<!-- Generator: Adobe Illustrator 17.0.0, SVG Export Plug-In . SVG Version: 6.00 Build 0)  -->
<!DOCTYPE svg PUBLIC "-//W3C//DTD SVG 1.1//EN" "http://www.w3.org/Graphics/SVG/1.1/DTD/svg11.dtd">
<svg version="1.1" id="Layer_1" xmlns="http://www.w3.org/2000/svg" xmlns:xlink="http://www.w3.org/1999/xlink" x="0px" y="0px"
	 width="24px" height="24px" viewBox="0 0 24 24" enable-background="new 0 0 24 24" xml:space="preserve">
<g id="youtube">
	<path fill="#020202" d="M22.78,7.602c0,0-0.215-1.516-0.875-2.184c-0.837-0.876-1.775-0.881-2.205-0.931
		c-3.078-0.224-7.696-0.224-7.696-0.224h-0.01c0,0-4.618,0-7.696,0.223C3.867,4.537,2.931,4.541,2.094,5.417
		C1.434,6.086,1.22,7.602,1.22,7.602S1,9.382,1,11.162v1.669c0,1.78,0.22,3.56,0.22,3.56s0.214,1.516,0.875,2.184
		c0.837,0.876,1.936,0.849,2.425,0.941C6.28,19.684,12,19.737,12,19.737s4.623-0.006,7.702-0.229
		c0.43-0.051,1.368-0.056,2.205-0.931c0.659-0.667,0.875-2.184,0.875-2.184S23,14.612,23,12.831v-1.669
		C23,9.382,22.78,7.602,22.78,7.602z M9.729,14.854L9.727,8.672l5.945,3.101L9.729,14.854z"/>
</g>
</svg>
