<?xml version="1.0" encoding="utf-8"?>
<!-- Generator: Adobe Illustrator 17.0.0, SVG Export Plug-In . SVG Version: 6.00 Build 0)  -->
<!DOCTYPE svg PUBLIC "-//W3C//DTD SVG 1.1//EN" "http://www.w3.org/Graphics/SVG/1.1/DTD/svg11.dtd">
<svg version="1.1" id="Layer_1" xmlns="http://www.w3.org/2000/svg" xmlns:xlink="http://www.w3.org/1999/xlink" x="0px" y="0px"
	 width="24px" height="24px" viewBox="0 0 24 24" enable-background="new 0 0 24 24" xml:space="preserve">
<g id="tumblr">
	<path fill="rgb(94, 171, 244)" d="M22,5.798c-0.736,0.326-1.527,0.547-2.357,0.646c0.847-0.508,1.498-1.312,1.804-2.27
		c-0.793,0.47-1.671,0.812-2.606,0.996c-0.748-0.798-1.815-1.296-2.995-1.296c-2.266,0-4.104,1.837-4.104,4.104
		c0,0.322,0.036,0.635,0.106,0.935C8.441,8.74,5.416,7.107,3.393,4.624C3.04,5.231,2.837,5.935,2.837,6.688
		c0,1.423,0.724,2.679,1.826,3.416C3.991,10.082,3.358,9.898,2.804,9.59C2.803,9.607,2.803,9.624,2.803,9.642
		c0,1.988,1.414,3.646,3.291,4.024c-0.343,0.093-0.706,0.143-1.081,0.143c-0.264,0-0.521-0.026-0.772-0.073
		c0.522,1.63,2.038,2.816,3.833,2.849c-1.404,1.101-3.173,1.756-5.096,1.756c-0.331,0-0.658-0.019-0.978-0.058
		c1.816,1.164,3.973,1.843,6.29,1.843c7.548,0,11.675-6.253,11.675-11.675c0-0.178-0.004-0.355-0.012-0.531
		C20.755,7.343,21.45,6.62,22,5.798L22,5.798z"/>
</g>
</svg>
