<?xml version="1.0" encoding="utf-8"?>
<!-- Generator: Adobe Illustrator 17.0.0, SVG Export Plug-In . SVG Version: 6.00 Build 0)  -->
<!DOCTYPE svg PUBLIC "-//W3C//DTD SVG 1.1//EN" "http://www.w3.org/Graphics/SVG/1.1/DTD/svg11.dtd">
<svg version="1.1" id="Layer_1" xmlns="http://www.w3.org/2000/svg" xmlns:xlink="http://www.w3.org/1999/xlink" x="0px" y="0px"
	 width="100px" height="37.818px" viewBox="0 0 100 37.818" enable-background="new 0 0 100 37.818" xml:space="preserve">
<g>
	<path fill="white" d="M8.776,36.702c-1.789-0.744-3.338-1.779-4.644-3.106S1.81,30.66,1.086,28.77C0.362,26.88,0,24.789,0,22.498
		c0-2.292,0.362-4.373,1.086-6.243c0.724-1.87,1.739-3.478,3.046-4.825s2.855-2.382,4.644-3.106c1.789-0.724,3.75-1.086,5.881-1.086
		c2.573,0,4.735,0.432,6.484,1.297c1.749,0.864,3.026,1.759,3.83,2.684l-4.765,7.057c-0.523-0.603-1.136-1.096-1.84-1.478
		c-0.704-0.382-1.518-0.573-2.443-0.573c-1.528,0-2.825,0.543-3.89,1.629c-1.066,1.086-1.598,2.634-1.598,4.644
		c0,2.01,0.533,3.569,1.598,4.674c1.066,1.106,2.362,1.659,3.89,1.659c0.925,0,1.739-0.201,2.443-0.603
		c0.704-0.402,1.317-0.905,1.84-1.508l4.765,7.117c-0.804,0.925-2.081,1.819-3.83,2.684c-1.749,0.864-3.91,1.297-6.484,1.297
		C12.525,37.818,10.565,37.446,8.776,36.702z"/>
	<path fill="white" d="M31.604,35.616c-1.448-1.468-2.171-3.689-2.171-6.665V16.768h-3.679V7.962h3.679V0h10.193v7.962h4.584
		v8.806h-4.584v9.59c0,0.764,0.161,1.367,0.482,1.809s0.784,0.663,1.387,0.663c0.362,0,0.714-0.05,1.056-0.151
		c0.342-0.101,0.573-0.231,0.694-0.392l1.689,7.962c-0.563,0.442-1.397,0.814-2.503,1.116c-1.106,0.302-2.423,0.452-3.951,0.452
		C35.344,37.818,33.052,37.084,31.604,35.616z"/>
	<path fill="white" d="M47.346,29.615l9.469-12.847h-9.469V7.962h22.558v7.177l-9.59,13.149h9.831v8.806H47.346V29.615z"/>
	<path fill="white" d="M89.807,19.482c0-1.166-0.261-2-0.784-2.503c-0.523-0.503-1.267-0.754-2.232-0.754
		s-1.759,0.282-2.383,0.844c-0.623,0.563-1.116,1.126-1.478,1.689v18.336H72.798V7.962h10.133v3.378
		c0.724-1.005,1.86-1.94,3.408-2.805c1.548-0.865,3.327-1.297,5.338-1.297c2.935,0,5.056,0.774,6.363,2.322
		c1.307,1.548,1.96,3.468,1.96,5.76v21.774H89.807V19.482z"/>
</g>
</svg>
