<?xml version="1.0" encoding="utf-8"?>
<!-- Generator: Adobe Illustrator 17.1.0, SVG Export Plug-In . SVG Version: 6.00 Build 0)  -->
<!DOCTYPE svg PUBLIC "-//W3C//DTD SVG 1.1//EN" "http://www.w3.org/Graphics/SVG/1.1/DTD/svg11.dtd">
<svg version="1.1" id="Layer_1" xmlns="http://www.w3.org/2000/svg" xmlns:xlink="http://www.w3.org/1999/xlink" x="0px" y="0px"
	 viewBox="0 0 435.817 437.46" enable-background="new 0 0 435.817 437.46" xml:space="preserve">
<g>
	<defs>
		<rect id="SVGID_1_" width="435.817" height="437.46"/>
	</defs>
	<clipPath id="SVGID_2_">
		<use xlink:href="#SVGID_1_"  overflow="visible"/>
	</clipPath>
	<path clip-path="url(#SVGID_2_)" fill="#E6322A" d="M217.342,0.039c0,0,128.477-5.783,196.57,123.337H206.417
		c0,0-39.186-1.289-72.592,46.256c-9.633,19.915-19.91,40.472-8.348,80.937c-16.703-28.26-88.652-153.53-88.652-153.53
		S87.579,5.176,217.342,0.039"/>
	<path clip-path="url(#SVGID_2_)" fill="#FEDA00" d="M407.223,327.869c0,0-59.247,114.143-205.118,108.533
		c17.995-31.147,103.772-179.68,103.772-179.68s20.709-33.289-3.744-85.991c-12.43-18.305-25.09-37.486-65.919-47.714
		c32.836-0.325,177.285,0.021,177.285,0.021S467.667,212.929,407.223,327.869"/>
	<path clip-path="url(#SVGID_2_)" fill="#65B54C" d="M28.373,328.737c0,0-69.223-108.394,8.579-231.908
		c17.98,31.16,103.711,179.721,103.711,179.721s18.469,34.578,76.341,39.755c22.06-1.609,45.007-2.982,74.28-33.222
		c-16.139,28.593-88.673,153.52-88.673,153.52S97.682,438.559,28.373,328.737"/>
	<path clip-path="url(#SVGID_2_)" fill="#60AC48" d="M202.105,437.46l29.186-121.792c0,0,32.091-2.505,58.983-32.017
		C273.581,313.016,202.105,437.46,202.105,437.46"/>
	<path clip-path="url(#SVGID_2_)" fill="#FFFFFF" d="M119.59,220.092c0-53.69,43.52-97.215,97.215-97.215
		c53.69,0,97.214,43.525,97.214,97.215c0,53.694-43.524,97.218-97.214,97.218C163.11,317.31,119.59,273.786,119.59,220.092"/>
</g>
<g>
	<defs>
		<path id="SVGID_3_" d="M135.86,220.092c0,44.703,36.238,80.945,80.945,80.945c44.699,0,80.941-36.242,80.941-80.945
			c0-44.702-36.242-80.941-80.941-80.941C172.098,139.151,135.86,175.39,135.86,220.092"/>
	</defs>
	<clipPath id="SVGID_4_">
		<use xlink:href="#SVGID_3_"  overflow="visible"/>
	</clipPath>
	
		<linearGradient id="SVGID_5_" gradientUnits="userSpaceOnUse" x1="0" y1="437.46" x2="1" y2="437.46" gradientTransform="matrix(0 155.8978 155.8978 0 -67982.25 140.295)">
		<stop  offset="0" style="stop-color:#96C1E9"/>
		<stop  offset="1" style="stop-color:#136DB5"/>
	</linearGradient>
	<rect x="135.86" y="139.151" clip-path="url(#SVGID_4_)" fill="url(#SVGID_5_)" width="161.886" height="161.886"/>
</g>
<g>
	<defs>
		<rect id="SVGID_6_" width="435.817" height="437.46"/>
	</defs>
	<clipPath id="SVGID_7_">
		<use xlink:href="#SVGID_6_"  overflow="visible"/>
	</clipPath>
	<path clip-path="url(#SVGID_7_)" fill="#F1CF00" d="M413.5,123.038l-120.182,35.237c0,0-18.123-26.595-57.103-35.258
		C269.989,122.902,413.5,123.038,413.5,123.038"/>
	<path clip-path="url(#SVGID_7_)" fill="#DA3027" d="M123.137,246.196c-16.89-29.249-86.31-149.16-86.31-149.16l89.03,88.07
		c0,0-9.15,18.82-5.68,45.7L123.137,246.196z"/>
</g>
</svg>
