<?xml version="1.0" encoding="utf-8"?>
<!-- Generator: Adobe Illustrator 17.1.0, SVG Export Plug-In . SVG Version: 6.00 Build 0)  -->
<!DOCTYPE svg PUBLIC "-//W3C//DTD SVG 1.1//EN" "http://www.w3.org/Graphics/SVG/1.1/DTD/svg11.dtd">
<svg version="1.1" xmlns="http://www.w3.org/2000/svg" xmlns:xlink="http://www.w3.org/1999/xlink" x="0px" y="0px" width="24" height="24"
	 viewBox="0 0 24 24" enable-background="new 0 0 24 24" xml:space="preserve">
<g id="Layer_1">
	<path fill="#FFFFFF" d="M6,0h12c3.3,0,6,2.7,6,6v12c0,3.3-2.7,6-6,6H6c-3.3,0-6-2.7-6-6V6C0,2.7,2.7,0,6,0z"/>
</g>
<g id="Layer_2">
	<g>
		<g>
			<defs>
				<rect id="SVGID_1_" x="1.5" y="1.5" width="21" height="21.1"/>
			</defs>
			<clipPath id="SVGID_2_">
				<use xlink:href="#SVGID_1_"  overflow="visible"/>
			</clipPath>
			<path clip-path="url(#SVGID_2_)" fill="#E6322A" d="M12,1.5c0,0,6.2-0.3,9.5,5.9h-10c0,0-1.9-0.1-3.5,2.2c-0.5,1-1,2-0.4,3.9
				c-0.8-1.4-4.3-7.4-4.3-7.4S5.7,1.7,12,1.5"/>
		</g>
		<g>
			<defs>
				<rect id="SVGID_3_" x="1.5" y="1.5" width="21" height="21.1"/>
			</defs>
			<clipPath id="SVGID_4_">
				<use xlink:href="#SVGID_3_"  overflow="visible"/>
			</clipPath>
			<path clip-path="url(#SVGID_4_)" fill="#FEDA00" d="M21.1,17.3c0,0-2.9,5.5-9.9,5.2c0.9-1.5,5-8.7,5-8.7s1-1.6-0.2-4.1
				c-0.6-0.9-1.2-1.8-3.2-2.3c1.6,0,8.5,0,8.5,0S24,11.7,21.1,17.3"/>
		</g>
		<g>
			<defs>
				<rect id="SVGID_5_" x="1.5" y="1.5" width="21" height="21.1"/>
			</defs>
			<clipPath id="SVGID_6_">
				<use xlink:href="#SVGID_5_"  overflow="visible"/>
			</clipPath>
			<path clip-path="url(#SVGID_6_)" fill="#65B54C" d="M2.9,17.3c0,0-3.3-5.2,0.4-11.2c0.9,1.5,5,8.7,5,8.7s0.9,1.7,3.7,1.9
				c1.1-0.1,2.2-0.1,3.6-1.6c-0.8,1.4-4.3,7.4-4.3,7.4S6.2,22.6,2.9,17.3"/>
		</g>
		<g>
			<defs>
				<rect id="SVGID_7_" x="1.5" y="1.5" width="21" height="21.1"/>
			</defs>
			<clipPath id="SVGID_8_">
				<use xlink:href="#SVGID_7_"  overflow="visible"/>
			</clipPath>
			<path clip-path="url(#SVGID_8_)" fill="#60AC48" d="M11.2,22.5l1.4-5.9c0,0,1.5-0.1,2.8-1.5C14.7,16.5,11.2,22.5,11.2,22.5"/>
		</g>
		<g>
			<defs>
				<rect id="SVGID_9_" x="1.5" y="1.5" width="21" height="21.1"/>
			</defs>
			<clipPath id="SVGID_10_">
				<use xlink:href="#SVGID_9_"  overflow="visible"/>
			</clipPath>
			<path clip-path="url(#SVGID_10_)" fill="#FFFFFF" d="M7.3,12.1c0-2.6,2.1-4.7,4.7-4.7c2.6,0,4.7,2.1,4.7,4.7
				c0,2.6-2.1,4.7-4.7,4.7C9.4,16.8,7.3,14.7,7.3,12.1"/>
		</g>
	</g>
	<g>
		<g>
			<defs>
				<path id="SVGID_11_" d="M8,12.1c0,2.2,1.7,3.9,3.9,3.9c2.2,0,3.9-1.7,3.9-3.9c0-2.2-1.7-3.9-3.9-3.9C9.8,8.2,8,9.9,8,12.1"/>
			</defs>
			<clipPath id="SVGID_12_">
				<use xlink:href="#SVGID_11_"  overflow="visible"/>
			</clipPath>
			
				<linearGradient id="SVGID_13_" gradientUnits="userSpaceOnUse" x1="6.123014e-02" y1="-413.4609" x2="0.9395" y2="-413.4609" gradientTransform="matrix(0 8.5529 -8.5529 0 -3524.3386 7.6969)">
				<stop  offset="0" style="stop-color:#96C1E9"/>
				<stop  offset="1" style="stop-color:#136DB5"/>
			</linearGradient>
			<rect x="8" y="8.2" clip-path="url(#SVGID_12_)" fill="url(#SVGID_13_)" width="7.8" height="7.8"/>
		</g>
	</g>
	<g>
		<g>
			<defs>
				<rect id="SVGID_14_" x="1.5" y="1.5" width="21" height="21.1"/>
			</defs>
			<clipPath id="SVGID_15_">
				<use xlink:href="#SVGID_14_"  overflow="visible"/>
			</clipPath>
			<path clip-path="url(#SVGID_15_)" fill="#F1CF00" d="M21.4,7.4l-5.8,1.7c0,0-0.9-1.3-2.8-1.7C14.5,7.4,21.4,7.4,21.4,7.4"/>
		</g>
		<g>
			<defs>
				<rect id="SVGID_16_" x="1.5" y="1.5" width="21" height="21.1"/>
			</defs>
			<clipPath id="SVGID_17_">
				<use xlink:href="#SVGID_16_"  overflow="visible"/>
			</clipPath>
			<path clip-path="url(#SVGID_17_)" fill="#DA3027" d="M7.4,13.3c-0.8-1.4-4.2-7.2-4.2-7.2l4.3,4.2c0,0-0.4,0.9-0.3,2.2L7.4,13.3z"
				/>
		</g>
	</g>
</g>
</svg>
