<?xml version="1.0" encoding="utf-8"?>
<!-- Generator: Adobe Illustrator 19.2.0, SVG Export Plug-In . SVG Version: 6.00 Build 0)  -->
<svg version="1.1" id="Layer_1" xmlns="http://www.w3.org/2000/svg" xmlns:xlink="http://www.w3.org/1999/xlink" x="0px" y="0px"
	 viewBox="0 0 512 512" style="enable-background:new 0 0 512 512;" xml:space="preserve">
<style type="text/css">
	.st0{fill:#FFFFFF;}
	.st1{fill:none;stroke:#FFFFFF;stroke-width:3;}
	.st2{fill:#3078BB;}
</style>
<path class="st0" d="M128,0h256c70.7,0,128,57.3,128,128v256c0,70.7-57.3,128-128,128H128C57.3,512,0,454.7,0,384V128
	C0,57.3,57.3,0,128,0z"/>
<path class="st0" d="M102,409l135-172l40,40L102,409z"/>
<line class="st1" x1="256" y1="54" x2="256" y2="87"/>
<line class="st1" x1="256" y1="424" x2="256" y2="457"/>
<line class="st1" x1="291" y1="57.1" x2="285.3" y2="89.6"/>
<line class="st1" x1="226.7" y1="421.4" x2="221" y2="453.9"/>
<line class="st1" x1="324.9" y1="66.2" x2="313.6" y2="97.2"/>
<line class="st1" x1="198.4" y1="413.8" x2="187.1" y2="444.8"/>
<line class="st1" x1="221" y1="57.1" x2="226.7" y2="89.6"/>
<line class="st1" x1="285.3" y1="421.4" x2="291" y2="453.9"/>
<line class="st1" x1="187.1" y1="66.2" x2="198.4" y2="97.2"/>
<line class="st1" x1="313.6" y1="413.8" x2="324.9" y2="444.8"/>
<line class="st1" x1="155.2" y1="81" x2="171.8" y2="109.6"/>
<line class="st1" x1="340.3" y1="401.4" x2="356.8" y2="430"/>
<line class="st1" x1="126.5" y1="101.1" x2="147.7" y2="126.4"/>
<line class="st1" x1="364.3" y1="384.6" x2="385.5" y2="409.9"/>
<line class="st1" x1="101.6" y1="126" x2="126.9" y2="147.2"/>
<line class="st1" x1="385.1" y1="363.8" x2="410.4" y2="385"/>
<line class="st1" x1="81.5" y1="154.8" x2="110.1" y2="171.3"/>
<line class="st1" x1="401.9" y1="339.8" x2="430.5" y2="356.3"/>
<line class="st1" x1="66.7" y1="186.6" x2="97.7" y2="197.9"/>
<line class="st1" x1="414.3" y1="313.1" x2="445.3" y2="324.4"/>
<line class="st1" x1="57.6" y1="220.5" x2="90.1" y2="226.2"/>
<line class="st1" x1="421.9" y1="284.8" x2="454.4" y2="290.5"/>
<line class="st1" x1="54.5" y1="255.5" x2="87.5" y2="255.5"/>
<line class="st1" x1="424.5" y1="255.5" x2="457.5" y2="255.5"/>
<line class="st1" x1="57.6" y1="290.5" x2="90.1" y2="284.8"/>
<line class="st1" x1="421.9" y1="226.2" x2="454.4" y2="220.5"/>
<line class="st1" x1="66.7" y1="324.4" x2="97.7" y2="313.1"/>
<line class="st1" x1="414.3" y1="197.9" x2="445.3" y2="186.6"/>
<line class="st1" x1="81.5" y1="356.3" x2="110.1" y2="339.8"/>
<line class="st1" x1="401.9" y1="171.3" x2="430.5" y2="154.8"/>
<line class="st1" x1="101.6" y1="385" x2="126.9" y2="363.8"/>
<line class="st1" x1="385.1" y1="147.2" x2="410.4" y2="126"/>
<line class="st1" x1="126.5" y1="409.9" x2="147.7" y2="384.6"/>
<line class="st1" x1="364.3" y1="126.4" x2="385.5" y2="101.1"/>
<line class="st1" x1="155.2" y1="430" x2="171.8" y2="401.4"/>
<line class="st1" x1="340.3" y1="109.6" x2="356.8" y2="81"/>
<line class="st1" x1="238.4" y1="54.8" x2="240" y2="72.7"/>
<line class="st1" x1="272" y1="438.3" x2="273.6" y2="456.2"/>
<line class="st1" x1="203.8" y1="60.9" x2="208.5" y2="78.3"/>
<line class="st1" x1="303.5" y1="432.7" x2="308.2" y2="450.1"/>
<line class="st1" x1="170.8" y1="72.9" x2="178.4" y2="89.2"/>
<line class="st1" x1="333.5" y1="421.8" x2="341.2" y2="438.1"/>
<line class="st1" x1="140.4" y1="90.4" x2="150.7" y2="105.2"/>
<line class="st1" x1="361.3" y1="405.8" x2="371.6" y2="420.6"/>
<line class="st1" x1="113.5" y1="113" x2="126.2" y2="125.7"/>
<line class="st1" x1="385.8" y1="385.3" x2="398.5" y2="398"/>
<line class="st1" x1="90.9" y1="139.9" x2="105.7" y2="150.2"/>
<line class="st1" x1="406.3" y1="360.8" x2="421.1" y2="371.1"/>
<line class="st1" x1="73.4" y1="170.3" x2="89.7" y2="177.9"/>
<line class="st1" x1="422.3" y1="333" x2="438.6" y2="340.7"/>
<line class="st1" x1="61.4" y1="203.3" x2="78.8" y2="208"/>
<line class="st1" x1="433.2" y1="303" x2="450.6" y2="307.7"/>
<line class="st1" x1="55.3" y1="237.9" x2="73.2" y2="239.5"/>
<line class="st1" x1="438.8" y1="271.5" x2="456.7" y2="273.1"/>
<line class="st1" x1="55.3" y1="273.1" x2="73.2" y2="271.5"/>
<line class="st1" x1="438.8" y1="239.5" x2="456.7" y2="237.9"/>
<line class="st1" x1="61.4" y1="307.7" x2="78.8" y2="303"/>
<line class="st1" x1="433.2" y1="208" x2="450.6" y2="203.3"/>
<line class="st1" x1="73.4" y1="340.7" x2="89.7" y2="333.1"/>
<line class="st1" x1="422.3" y1="177.9" x2="438.6" y2="170.3"/>
<line class="st1" x1="90.9" y1="371.1" x2="105.7" y2="360.8"/>
<line class="st1" x1="406.3" y1="150.2" x2="421.1" y2="139.9"/>
<line class="st1" x1="140.4" y1="420.6" x2="150.7" y2="405.8"/>
<line class="st1" x1="361.2" y1="105.2" x2="371.6" y2="90.4"/>
<line class="st1" x1="170.8" y1="438.1" x2="178.5" y2="421.8"/>
<line class="st1" x1="333.5" y1="89.2" x2="341.2" y2="72.9"/>
<line class="st1" x1="203.8" y1="450.1" x2="208.5" y2="432.7"/>
<line class="st1" x1="303.5" y1="78.3" x2="308.2" y2="60.9"/>
<line class="st1" x1="238.4" y1="456.2" x2="240" y2="438.3"/>
<line class="st1" x1="272" y1="72.7" x2="273.6" y2="54.8"/>
<g id="Page-1">
	<path id="Microsoft-Edge-logo" class="st2" d="M127.9,151.7C75.2,184.6,45,231.2,45,231.2
		s7.8-97.9,82.9-155.1c29.9-22.8,70.7-41.9,125.6-41.9c20.6,0,63.9,3.6,102.9,27.6s54.7,44.2,72.3,73.6
		c7.6,12.7,13.7,29.1,17.6,44.8c7.2,29.5,8.1,64.8,8.1,64.8v46.5H175.9c0,0-6.8,93.6,121.3,93.6c44.6,0,60.2-7,74.8-11.3
		C394.9,367.1,417,352,417,352l0,93.5c0,0-52.4,32.3-131.6,32.3c-22.3,0-45.8-1.9-68.5-9.2c-19.8-6.4-61.3-23.8-89.1-64.4
		c-9.8-14.4-20.5-33.5-25.7-52.2c-5.7-20.2-5.6-39.8-5.6-50.6c0-40.4,13.8-79,37.8-106.9c31.1-36.1,70.3-52.1,70.3-52.1
		s-12.8,14.9-20.6,33.5S174,213,174,213h157.3c0,0,9.2-94-89-94C205.3,119,159.8,131.9,127.9,151.7z"/>
</g>
</svg>
